<svg width="24" height="25" viewBox="0 0 24 25" fill="none" xmlns="http://www.w3.org/2000/svg">
<path d="M5.00006 20.7495C5.19006 20.7495 5.38006 20.6795 5.53006 20.5295L19.5301 6.52945C19.8201 6.23945 19.8201 5.75945 19.5301 5.46945C19.2401 5.17945 18.7601 5.17945 18.4701 5.46945L4.47006 19.4695C4.18006 19.7595 4.18006 20.2395 4.47006 20.5295C4.62006 20.6795 4.81006 20.7495 5.00006 20.7495Z" fill="#FFD429"/>
<path d="M19 17.02C19.41 17.02 19.75 16.68 19.75 16.27V6C19.75 5.59 19.41 5.25 19 5.25H8.73C8.32 5.25 7.98 5.59 7.98 6C7.98 6.41 8.32 6.75 8.73 6.75H18.25V16.27C18.25 16.68 18.59 17.02 19 17.02Z" fill="#FFD429"/>
</svg>
