<svg width="107" height="48" viewBox="0 0 107 48" fill="none" xmlns="http://www.w3.org/2000/svg">
<path d="M4.48438 17H2.03125L2.04688 15.3125H4.48438C5.14583 15.3125 5.70052 15.1667 6.14844 14.875C6.59635 14.5781 6.9349 14.1536 7.16406 13.6016C7.39323 13.0443 7.50781 12.3776 7.50781 11.6016V11.0156C7.50781 10.4167 7.44271 9.88802 7.3125 9.42969C7.18229 8.97135 6.98958 8.58594 6.73438 8.27344C6.48438 7.96094 6.17448 7.72396 5.80469 7.5625C5.4349 7.40104 5.01042 7.32031 4.53125 7.32031H1.98438V5.625H4.53125C5.29167 5.625 5.98438 5.7526 6.60938 6.00781C7.23958 6.26302 7.78385 6.63021 8.24219 7.10938C8.70573 7.58333 9.0599 8.15104 9.30469 8.8125C9.55469 9.47396 9.67969 10.2135 9.67969 11.0312V11.6016C9.67969 12.4141 9.55469 13.1536 9.30469 13.8203C9.0599 14.4818 8.70573 15.0495 8.24219 15.5234C7.78385 15.9974 7.23698 16.362 6.60156 16.6172C5.96615 16.8724 5.26042 17 4.48438 17ZM3.23438 5.625V17H1.08594V5.625H3.23438ZM13.5391 8.54688V17H11.4688V8.54688H13.5391ZM11.3281 6.33594C11.3281 6.02865 11.4323 5.77344 11.6406 5.57031C11.8542 5.36719 12.1406 5.26562 12.5 5.26562C12.8594 5.26562 13.1432 5.36719 13.3516 5.57031C13.5651 5.77344 13.6719 6.02865 13.6719 6.33594C13.6719 6.63802 13.5651 6.89062 13.3516 7.09375C13.1432 7.29688 12.8594 7.39844 12.5 7.39844C12.1406 7.39844 11.8542 7.29688 11.6406 7.09375C11.4323 6.89062 11.3281 6.63802 11.3281 6.33594ZM20.1641 15.2031V11.3047C20.1641 11.0182 20.1146 10.7708 20.0156 10.5625C19.9167 10.3542 19.7656 10.1927 19.5625 10.0781C19.3594 9.96354 19.1016 9.90625 18.7891 9.90625C18.513 9.90625 18.2708 9.95312 18.0625 10.0469C17.8594 10.1406 17.7031 10.2734 17.5938 10.4453C17.4844 10.612 17.4297 10.8047 17.4297 11.0234H15.3594C15.3594 10.6745 15.4427 10.3438 15.6094 10.0312C15.776 9.71354 16.013 9.43229 16.3203 9.1875C16.6328 8.9375 17.0052 8.74219 17.4375 8.60156C17.875 8.46094 18.3646 8.39062 18.9062 8.39062C19.5469 8.39062 20.1172 8.5 20.6172 8.71875C21.1224 8.93229 21.5182 9.25521 21.8047 9.6875C22.0964 10.1198 22.2422 10.6641 22.2422 11.3203V15.0078C22.2422 15.4297 22.2682 15.7917 22.3203 16.0938C22.3776 16.3906 22.4609 16.6484 22.5703 16.8672V17H20.4688C20.3698 16.7865 20.2943 16.5156 20.2422 16.1875C20.1901 15.8542 20.1641 15.526 20.1641 15.2031ZM20.4531 11.8516L20.4688 13.0781H19.1641C18.8411 13.0781 18.5573 13.112 18.3125 13.1797C18.0677 13.2422 17.8672 13.3359 17.7109 13.4609C17.5547 13.5807 17.4375 13.7266 17.3594 13.8984C17.2812 14.0651 17.2422 14.2552 17.2422 14.4688C17.2422 14.6771 17.2891 14.8646 17.3828 15.0312C17.4818 15.1979 17.6224 15.3307 17.8047 15.4297C17.9922 15.5234 18.2109 15.5703 18.4609 15.5703C18.8255 15.5703 19.1432 15.4974 19.4141 15.3516C19.6849 15.2005 19.8958 15.0182 20.0469 14.8047C20.1979 14.5911 20.2786 14.388 20.2891 14.1953L20.8828 15.0859C20.8099 15.2995 20.7005 15.526 20.5547 15.7656C20.4089 16.0052 20.2214 16.2292 19.9922 16.4375C19.763 16.6458 19.487 16.8177 19.1641 16.9531C18.8411 17.0885 18.4661 17.1562 18.0391 17.1562C17.4922 17.1562 17.0026 17.0469 16.5703 16.8281C16.138 16.6094 15.7969 16.3099 15.5469 15.9297C15.2969 15.5495 15.1719 15.1172 15.1719 14.6328C15.1719 14.1849 15.2552 13.7891 15.4219 13.4453C15.5885 13.1016 15.8359 12.8125 16.1641 12.5781C16.4922 12.3385 16.8984 12.1589 17.3828 12.0391C17.8724 11.9141 18.4323 11.8516 19.0625 11.8516H20.4531ZM26.125 10.3516V17H24.0625V8.54688H26L26.125 10.3516ZM25.7969 12.4688H25.1875C25.1927 11.8542 25.276 11.2969 25.4375 10.7969C25.599 10.2969 25.8255 9.86719 26.1172 9.50781C26.4141 9.14844 26.7656 8.8724 27.1719 8.67969C27.5781 8.48698 28.0312 8.39062 28.5312 8.39062C28.9375 8.39062 29.3047 8.44792 29.6328 8.5625C29.9609 8.67708 30.2422 8.85938 30.4766 9.10938C30.7161 9.35938 30.8984 9.6875 31.0234 10.0938C31.1536 10.4948 31.2188 10.9896 31.2188 11.5781V17H29.1406V11.5625C29.1406 11.1771 29.0833 10.8724 28.9688 10.6484C28.8594 10.4245 28.6979 10.2656 28.4844 10.1719C28.276 10.0781 28.0182 10.0312 27.7109 10.0312C27.3932 10.0312 27.1146 10.0964 26.875 10.2266C26.6406 10.3516 26.4427 10.526 26.2812 10.75C26.125 10.974 26.0052 11.2318 25.9219 11.5234C25.8385 11.8151 25.7969 12.1302 25.7969 12.4688ZM35.0625 10.3516V17H33V8.54688H34.9375L35.0625 10.3516ZM34.7344 12.4688H34.125C34.1302 11.8542 34.2135 11.2969 34.375 10.7969C34.5365 10.2969 34.763 9.86719 35.0547 9.50781C35.3516 9.14844 35.7031 8.8724 36.1094 8.67969C36.5156 8.48698 36.9688 8.39062 37.4688 8.39062C37.875 8.39062 38.2422 8.44792 38.5703 8.5625C38.8984 8.67708 39.1797 8.85938 39.4141 9.10938C39.6536 9.35938 39.8359 9.6875 39.9609 10.0938C40.0911 10.4948 40.1562 10.9896 40.1562 11.5781V17H38.0781V11.5625C38.0781 11.1771 38.0208 10.8724 37.9062 10.6484C37.7969 10.4245 37.6354 10.2656 37.4219 10.1719C37.2135 10.0781 36.9557 10.0312 36.6484 10.0312C36.3307 10.0312 36.0521 10.0964 35.8125 10.2266C35.5781 10.3516 35.3802 10.526 35.2188 10.75C35.0625 10.974 34.9427 11.2318 34.8594 11.5234C34.776 11.8151 34.7344 12.1302 34.7344 12.4688ZM45.7734 17.1562C45.1328 17.1562 44.5573 17.0521 44.0469 16.8438C43.5365 16.6354 43.1016 16.3464 42.7422 15.9766C42.388 15.6016 42.1146 15.1667 41.9219 14.6719C41.7344 14.1719 41.6406 13.6354 41.6406 13.0625V12.75C41.6406 12.099 41.7344 11.5078 41.9219 10.9766C42.1094 10.4401 42.375 9.97917 42.7188 9.59375C43.0625 9.20833 43.474 8.91146 43.9531 8.70312C44.4323 8.49479 44.9609 8.39062 45.5391 8.39062C46.138 8.39062 46.6667 8.49219 47.125 8.69531C47.5833 8.89323 47.9661 9.17448 48.2734 9.53906C48.5807 9.90365 48.8125 10.3411 48.9688 10.8516C49.125 11.3568 49.2031 11.9167 49.2031 12.5312V13.3984H42.5781V11.9766H47.1719V11.8203C47.1615 11.4922 47.099 11.1927 46.9844 10.9219C46.8698 10.6458 46.6927 10.4271 46.4531 10.2656C46.2135 10.099 45.9036 10.0156 45.5234 10.0156C45.2161 10.0156 44.9479 10.0833 44.7188 10.2188C44.4948 10.349 44.3073 10.5365 44.1562 10.7812C44.0104 11.0208 43.901 11.3073 43.8281 11.6406C43.7552 11.974 43.7188 12.3438 43.7188 12.75V13.0625C43.7188 13.4167 43.7656 13.7448 43.8594 14.0469C43.9583 14.349 44.1016 14.612 44.2891 14.8359C44.4818 15.0547 44.7109 15.2266 44.9766 15.3516C45.2474 15.4714 45.5547 15.5312 45.8984 15.5312C46.3307 15.5312 46.7214 15.4479 47.0703 15.2812C47.4245 15.1094 47.7318 14.8568 47.9922 14.5234L49.0312 15.6016C48.8542 15.862 48.6146 16.112 48.3125 16.3516C48.0156 16.5911 47.6562 16.7865 47.2344 16.9375C46.8125 17.0833 46.3255 17.1562 45.7734 17.1562ZM54.7266 5.625H58.8594C59.724 5.625 60.4661 5.75521 61.0859 6.01562C61.7057 6.27604 62.1823 6.66146 62.5156 7.17188C62.849 7.68229 63.0156 8.3099 63.0156 9.05469C63.0156 9.64323 62.9115 10.1536 62.7031 10.5859C62.4948 11.0182 62.2005 11.3802 61.8203 11.6719C61.4453 11.9635 61.0026 12.1927 60.4922 12.3594L59.8203 12.7031H56.1719L56.1562 11.0078H58.8828C59.3255 11.0078 59.6927 10.9297 59.9844 10.7734C60.276 10.6172 60.4948 10.401 60.6406 10.125C60.7917 9.84896 60.8672 9.53385 60.8672 9.17969C60.8672 8.79948 60.7943 8.47135 60.6484 8.19531C60.5026 7.91406 60.2812 7.69792 59.9844 7.54688C59.6875 7.39583 59.3125 7.32031 58.8594 7.32031H56.875V17H54.7266V5.625ZM61.1484 17L58.5156 11.9062L60.7891 11.8984L63.4531 16.8906V17H61.1484ZM69.7734 14.9922V8.54688H71.8516V17H69.8984L69.7734 14.9922ZM70.0391 13.2422L70.6797 13.2266C70.6797 13.7943 70.6172 14.3177 70.4922 14.7969C70.3672 15.276 70.1719 15.6927 69.9062 16.0469C69.6458 16.3958 69.3151 16.6693 68.9141 16.8672C68.513 17.0599 68.0391 17.1562 67.4922 17.1562C67.0755 17.1562 66.6953 17.099 66.3516 16.9844C66.0078 16.8646 65.7109 16.6797 65.4609 16.4297C65.2161 16.1745 65.026 15.849 64.8906 15.4531C64.7552 15.0521 64.6875 14.5703 64.6875 14.0078V8.54688H66.75V14.0234C66.75 14.3047 66.7812 14.5391 66.8438 14.7266C66.9115 14.9141 67.0026 15.0677 67.1172 15.1875C67.237 15.3021 67.375 15.3854 67.5312 15.4375C67.6927 15.4844 67.8646 15.5078 68.0469 15.5078C68.5469 15.5078 68.9401 15.4089 69.2266 15.2109C69.5182 15.0078 69.7266 14.737 69.8516 14.3984C69.9766 14.0547 70.0391 13.6693 70.0391 13.2422ZM78.3281 14.6875C78.3281 14.5104 78.2812 14.3516 78.1875 14.2109C78.0938 14.0703 77.9167 13.9427 77.6562 13.8281C77.401 13.7083 77.026 13.5964 76.5312 13.4922C76.0938 13.3984 75.6901 13.2812 75.3203 13.1406C74.9505 13 74.6328 12.8307 74.3672 12.6328C74.1016 12.4297 73.8932 12.1927 73.7422 11.9219C73.5964 11.6458 73.5234 11.3281 73.5234 10.9688C73.5234 10.6198 73.599 10.2917 73.75 9.98438C73.901 9.67188 74.1198 9.39844 74.4062 9.16406C74.6927 8.92448 75.0417 8.73698 75.4531 8.60156C75.8646 8.46094 76.3281 8.39062 76.8438 8.39062C77.5625 8.39062 78.1797 8.50781 78.6953 8.74219C79.2161 8.97656 79.6146 9.29948 79.8906 9.71094C80.1667 10.1172 80.3047 10.5755 80.3047 11.0859H78.2422C78.2422 10.862 78.1901 10.6589 78.0859 10.4766C77.987 10.2943 77.8333 10.1484 77.625 10.0391C77.4167 9.92448 77.1536 9.86719 76.8359 9.86719C76.5495 9.86719 76.3073 9.91406 76.1094 10.0078C75.9167 10.1016 75.7708 10.224 75.6719 10.375C75.5729 10.526 75.5234 10.6927 75.5234 10.875C75.5234 11.0104 75.5495 11.1328 75.6016 11.2422C75.6589 11.3464 75.75 11.4427 75.875 11.5312C76 11.6198 76.1693 11.7005 76.3828 11.7734C76.6016 11.8464 76.8698 11.9167 77.1875 11.9844C77.8177 12.1094 78.3672 12.276 78.8359 12.4844C79.3099 12.6875 79.6797 12.9583 79.9453 13.2969C80.2109 13.6354 80.3438 14.0677 80.3438 14.5938C80.3438 14.9688 80.263 15.3125 80.1016 15.625C79.9401 15.9323 79.7057 16.2005 79.3984 16.4297C79.0911 16.6589 78.724 16.8385 78.2969 16.9688C77.8698 17.0938 77.388 17.1562 76.8516 17.1562C76.0755 17.1562 75.4193 17.0182 74.8828 16.7422C74.3464 16.4609 73.9401 16.1068 73.6641 15.6797C73.388 15.2474 73.25 14.7995 73.25 14.3359H75.2266C75.2422 14.6641 75.3307 14.9271 75.4922 15.125C75.6536 15.3229 75.8568 15.4661 76.1016 15.5547C76.3516 15.638 76.6146 15.6797 76.8906 15.6797C77.2031 15.6797 77.4661 15.638 77.6797 15.5547C77.8932 15.4661 78.0547 15.349 78.1641 15.2031C78.2734 15.0521 78.3281 14.8802 78.3281 14.6875ZM86.5625 14.6875C86.5625 14.5104 86.5156 14.3516 86.4219 14.2109C86.3281 14.0703 86.151 13.9427 85.8906 13.8281C85.6354 13.7083 85.2604 13.5964 84.7656 13.4922C84.3281 13.3984 83.9245 13.2812 83.5547 13.1406C83.1849 13 82.8672 12.8307 82.6016 12.6328C82.3359 12.4297 82.1276 12.1927 81.9766 11.9219C81.8307 11.6458 81.7578 11.3281 81.7578 10.9688C81.7578 10.6198 81.8333 10.2917 81.9844 9.98438C82.1354 9.67188 82.3542 9.39844 82.6406 9.16406C82.9271 8.92448 83.276 8.73698 83.6875 8.60156C84.099 8.46094 84.5625 8.39062 85.0781 8.39062C85.7969 8.39062 86.4141 8.50781 86.9297 8.74219C87.4505 8.97656 87.849 9.29948 88.125 9.71094C88.401 10.1172 88.5391 10.5755 88.5391 11.0859H86.4766C86.4766 10.862 86.4245 10.6589 86.3203 10.4766C86.2214 10.2943 86.0677 10.1484 85.8594 10.0391C85.651 9.92448 85.388 9.86719 85.0703 9.86719C84.7839 9.86719 84.5417 9.91406 84.3438 10.0078C84.151 10.1016 84.0052 10.224 83.9062 10.375C83.8073 10.526 83.7578 10.6927 83.7578 10.875C83.7578 11.0104 83.7839 11.1328 83.8359 11.2422C83.8932 11.3464 83.9844 11.4427 84.1094 11.5312C84.2344 11.6198 84.4036 11.7005 84.6172 11.7734C84.8359 11.8464 85.1042 11.9167 85.4219 11.9844C86.0521 12.1094 86.6016 12.276 87.0703 12.4844C87.5443 12.6875 87.9141 12.9583 88.1797 13.2969C88.4453 13.6354 88.5781 14.0677 88.5781 14.5938C88.5781 14.9688 88.4974 15.3125 88.3359 15.625C88.1745 15.9323 87.9401 16.2005 87.6328 16.4297C87.3255 16.6589 86.9583 16.8385 86.5312 16.9688C86.1042 17.0938 85.6224 17.1562 85.0859 17.1562C84.3099 17.1562 83.6536 17.0182 83.1172 16.7422C82.5807 16.4609 82.1745 16.1068 81.8984 15.6797C81.6224 15.2474 81.4844 14.7995 81.4844 14.3359H83.4609C83.4766 14.6641 83.5651 14.9271 83.7266 15.125C83.888 15.3229 84.0911 15.4661 84.3359 15.5547C84.5859 15.638 84.849 15.6797 85.125 15.6797C85.4375 15.6797 85.7005 15.638 85.9141 15.5547C86.1276 15.4661 86.2891 15.349 86.3984 15.2031C86.5078 15.0521 86.5625 14.8802 86.5625 14.6875ZM93.9453 17.1562C93.3047 17.1562 92.7292 17.0521 92.2188 16.8438C91.7083 16.6354 91.2734 16.3464 90.9141 15.9766C90.5599 15.6016 90.2865 15.1667 90.0938 14.6719C89.9062 14.1719 89.8125 13.6354 89.8125 13.0625V12.75C89.8125 12.099 89.9062 11.5078 90.0938 10.9766C90.2812 10.4401 90.5469 9.97917 90.8906 9.59375C91.2344 9.20833 91.6458 8.91146 92.125 8.70312C92.6042 8.49479 93.1328 8.39062 93.7109 8.39062C94.3099 8.39062 94.8385 8.49219 95.2969 8.69531C95.7552 8.89323 96.138 9.17448 96.4453 9.53906C96.7526 9.90365 96.9844 10.3411 97.1406 10.8516C97.2969 11.3568 97.375 11.9167 97.375 12.5312V13.3984H90.75V11.9766H95.3438V11.8203C95.3333 11.4922 95.2708 11.1927 95.1562 10.9219C95.0417 10.6458 94.8646 10.4271 94.625 10.2656C94.3854 10.099 94.0755 10.0156 93.6953 10.0156C93.388 10.0156 93.1198 10.0833 92.8906 10.2188C92.6667 10.349 92.4792 10.5365 92.3281 10.7812C92.1823 11.0208 92.0729 11.3073 92 11.6406C91.9271 11.974 91.8906 12.3438 91.8906 12.75V13.0625C91.8906 13.4167 91.9375 13.7448 92.0312 14.0469C92.1302 14.349 92.2734 14.612 92.4609 14.8359C92.6536 15.0547 92.8828 15.2266 93.1484 15.3516C93.4193 15.4714 93.7266 15.5312 94.0703 15.5312C94.5026 15.5312 94.8932 15.4479 95.2422 15.2812C95.5964 15.1094 95.9036 14.8568 96.1641 14.5234L97.2031 15.6016C97.026 15.862 96.7865 16.112 96.4844 16.3516C96.1875 16.5911 95.8281 16.7865 95.4062 16.9375C94.9844 17.0833 94.4974 17.1562 93.9453 17.1562ZM100.945 5V17H98.875V5H100.945ZM105.102 5V17H103.031V5H105.102Z" fill="#282938"/>
<path d="M7.38281 38.125C7.38281 37.8594 7.34115 37.625 7.25781 37.4219C7.17969 37.2135 7.03906 37.026 6.83594 36.8594C6.63802 36.6927 6.36198 36.5339 6.00781 36.3828C5.65885 36.2318 5.21615 36.0781 4.67969 35.9219C4.11719 35.7552 3.60938 35.5703 3.15625 35.3672C2.70312 35.1589 2.3151 34.9219 1.99219 34.6562C1.66927 34.3906 1.42188 34.0859 1.25 33.7422C1.07812 33.3984 0.992188 33.0052 0.992188 32.5625C0.992188 32.1198 1.08333 31.7109 1.26562 31.3359C1.44792 30.9609 1.70833 30.6354 2.04688 30.3594C2.39062 30.0781 2.79948 29.8594 3.27344 29.7031C3.7474 29.5469 4.27604 29.4688 4.85938 29.4688C5.71354 29.4688 6.4375 29.6328 7.03125 29.9609C7.63021 30.2839 8.08594 30.7083 8.39844 31.2344C8.71094 31.7552 8.86719 32.3125 8.86719 32.9062H7.36719C7.36719 32.4792 7.27604 32.1016 7.09375 31.7734C6.91146 31.4401 6.63542 31.1797 6.26562 30.9922C5.89583 30.7995 5.42708 30.7031 4.85938 30.7031C4.32292 30.7031 3.88021 30.7839 3.53125 30.9453C3.18229 31.1068 2.92188 31.3255 2.75 31.6016C2.58333 31.8776 2.5 32.1927 2.5 32.5469C2.5 32.7865 2.54948 33.0052 2.64844 33.2031C2.7526 33.3958 2.91146 33.5755 3.125 33.7422C3.34375 33.9089 3.61979 34.0625 3.95312 34.2031C4.29167 34.3438 4.69531 34.4792 5.16406 34.6094C5.8099 34.7917 6.36719 34.9948 6.83594 35.2188C7.30469 35.4427 7.6901 35.6953 7.99219 35.9766C8.29948 36.2526 8.52604 36.5677 8.67188 36.9219C8.82292 37.2708 8.89844 37.6667 8.89844 38.1094C8.89844 38.5729 8.80469 38.9922 8.61719 39.3672C8.42969 39.7422 8.16146 40.0625 7.8125 40.3281C7.46354 40.5938 7.04427 40.7995 6.55469 40.9453C6.07031 41.0859 5.52865 41.1562 4.92969 41.1562C4.40365 41.1562 3.88542 41.0833 3.375 40.9375C2.86979 40.7917 2.40885 40.5729 1.99219 40.2812C1.58073 39.9896 1.25 39.6302 1 39.2031C0.755208 38.7708 0.632812 38.2708 0.632812 37.7031H2.13281C2.13281 38.0938 2.20833 38.4297 2.35938 38.7109C2.51042 38.987 2.71615 39.2161 2.97656 39.3984C3.24219 39.5807 3.54167 39.7161 3.875 39.8047C4.21354 39.888 4.5651 39.9297 4.92969 39.9297C5.45573 39.9297 5.90104 39.8568 6.26562 39.7109C6.63021 39.5651 6.90625 39.3568 7.09375 39.0859C7.28646 38.8151 7.38281 38.4948 7.38281 38.125ZM14.1406 32.5469V33.6562H9.57031V32.5469H14.1406ZM11.1172 30.4922H12.5625V38.9062C12.5625 39.1927 12.6068 39.4089 12.6953 39.5547C12.7839 39.7005 12.8984 39.7969 13.0391 39.8438C13.1797 39.8906 13.3307 39.9141 13.4922 39.9141C13.612 39.9141 13.737 39.9036 13.8672 39.8828C14.0026 39.8568 14.1042 39.8359 14.1719 39.8203L14.1797 41C14.0651 41.0365 13.9141 41.0703 13.7266 41.1016C13.5443 41.138 13.3229 41.1562 13.0625 41.1562C12.7083 41.1562 12.3828 41.0859 12.0859 40.9453C11.7891 40.8047 11.5521 40.5703 11.375 40.2422C11.2031 39.9089 11.1172 39.4609 11.1172 38.8984V30.4922ZM20.8203 39.5547V35.2031C20.8203 34.8698 20.7526 34.5807 20.6172 34.3359C20.487 34.0859 20.2891 33.8932 20.0234 33.7578C19.7578 33.6224 19.4297 33.5547 19.0391 33.5547C18.6745 33.5547 18.3542 33.6172 18.0781 33.7422C17.8073 33.8672 17.5938 34.0312 17.4375 34.2344C17.2865 34.4375 17.2109 34.6562 17.2109 34.8906H15.7656C15.7656 34.5885 15.8438 34.2891 16 33.9922C16.1562 33.6953 16.3802 33.4271 16.6719 33.1875C16.9688 32.9427 17.3229 32.75 17.7344 32.6094C18.151 32.4635 18.6146 32.3906 19.125 32.3906C19.7396 32.3906 20.2812 32.4948 20.75 32.7031C21.224 32.9115 21.5938 33.2266 21.8594 33.6484C22.1302 34.0651 22.2656 34.5885 22.2656 35.2188V39.1562C22.2656 39.4375 22.2891 39.737 22.3359 40.0547C22.388 40.3724 22.4635 40.6458 22.5625 40.875V41H21.0547C20.9818 40.8333 20.9245 40.612 20.8828 40.3359C20.8411 40.0547 20.8203 39.7943 20.8203 39.5547ZM21.0703 35.875L21.0859 36.8906H19.625C19.2135 36.8906 18.8464 36.9245 18.5234 36.9922C18.2005 37.0547 17.9297 37.151 17.7109 37.2812C17.4922 37.4115 17.3255 37.5755 17.2109 37.7734C17.0964 37.9661 17.0391 38.1927 17.0391 38.4531C17.0391 38.7188 17.099 38.9609 17.2188 39.1797C17.3385 39.3984 17.5182 39.5729 17.7578 39.7031C18.0026 39.8281 18.3021 39.8906 18.6562 39.8906C19.099 39.8906 19.4896 39.7969 19.8281 39.6094C20.1667 39.4219 20.4349 39.1927 20.6328 38.9219C20.8359 38.651 20.9453 38.388 20.9609 38.1328L21.5781 38.8281C21.5417 39.0469 21.4427 39.2891 21.2812 39.5547C21.1198 39.8203 20.9036 40.0755 20.6328 40.3203C20.3672 40.5599 20.0495 40.7604 19.6797 40.9219C19.3151 41.0781 18.9036 41.1562 18.4453 41.1562C17.8724 41.1562 17.3698 41.0443 16.9375 40.8203C16.5104 40.5964 16.1771 40.2969 15.9375 39.9219C15.7031 39.5417 15.5859 39.1172 15.5859 38.6484C15.5859 38.1953 15.6745 37.7969 15.8516 37.4531C16.0286 37.1042 16.2839 36.8151 16.6172 36.5859C16.9505 36.3516 17.3516 36.1745 17.8203 36.0547C18.2891 35.9349 18.8125 35.875 19.3906 35.875H21.0703ZM25.9844 33.875V41H24.5391V32.5469H25.9453L25.9844 33.875ZM28.625 32.5L28.6172 33.8438C28.4974 33.8177 28.3828 33.8021 28.2734 33.7969C28.1693 33.7865 28.0495 33.7812 27.9141 33.7812C27.5807 33.7812 27.2865 33.8333 27.0312 33.9375C26.776 34.0417 26.5599 34.1875 26.3828 34.375C26.2057 34.5625 26.0651 34.7865 25.9609 35.0469C25.862 35.3021 25.7969 35.5833 25.7656 35.8906L25.3594 36.125C25.3594 35.6146 25.4089 35.1354 25.5078 34.6875C25.612 34.2396 25.7708 33.8438 25.9844 33.5C26.1979 33.151 26.4688 32.8802 26.7969 32.6875C27.1302 32.4896 27.526 32.3906 27.9844 32.3906C28.0885 32.3906 28.2083 32.4036 28.3438 32.4297C28.4792 32.4505 28.5729 32.474 28.625 32.5ZM29.9531 29H31.4062V39.3594L31.2812 41H29.9531V29ZM37.1172 36.7031V36.8672C37.1172 37.4818 37.0443 38.0521 36.8984 38.5781C36.7526 39.099 36.5391 39.5521 36.2578 39.9375C35.9766 40.3229 35.6328 40.6224 35.2266 40.8359C34.8203 41.0495 34.3542 41.1562 33.8281 41.1562C33.2917 41.1562 32.8203 41.0651 32.4141 40.8828C32.013 40.6953 31.6745 40.4271 31.3984 40.0781C31.1224 39.7292 30.901 39.3073 30.7344 38.8125C30.5729 38.3177 30.4609 37.7604 30.3984 37.1406V36.4219C30.4609 35.7969 30.5729 35.237 30.7344 34.7422C30.901 34.2474 31.1224 33.8255 31.3984 33.4766C31.6745 33.1224 32.013 32.8542 32.4141 32.6719C32.8151 32.4844 33.2812 32.3906 33.8125 32.3906C34.3438 32.3906 34.8151 32.4948 35.2266 32.7031C35.638 32.9062 35.9818 33.1979 36.2578 33.5781C36.5391 33.9583 36.7526 34.4141 36.8984 34.9453C37.0443 35.4714 37.1172 36.0573 37.1172 36.7031ZM35.6641 36.8672V36.7031C35.6641 36.2812 35.625 35.8854 35.5469 35.5156C35.4688 35.1406 35.3438 34.8125 35.1719 34.5312C35 34.2448 34.7734 34.0208 34.4922 33.8594C34.2109 33.6927 33.8646 33.6094 33.4531 33.6094C33.0885 33.6094 32.7708 33.6719 32.5 33.7969C32.2344 33.9219 32.0078 34.0911 31.8203 34.3047C31.6328 34.513 31.4792 34.7526 31.3594 35.0234C31.2448 35.2891 31.1589 35.5651 31.1016 35.8516V37.7344C31.1849 38.099 31.3203 38.4505 31.5078 38.7891C31.7005 39.1224 31.9557 39.3958 32.2734 39.6094C32.5964 39.8229 32.9948 39.9297 33.4688 39.9297C33.8594 39.9297 34.1927 39.8516 34.4688 39.6953C34.75 39.5339 34.9766 39.3125 35.1484 39.0312C35.3255 38.75 35.4557 38.4245 35.5391 38.0547C35.6224 37.6849 35.6641 37.2891 35.6641 36.8672ZM44.1172 39.0469V32.5469H45.5703V41H44.1875L44.1172 39.0469ZM44.3906 37.2656L44.9922 37.25C44.9922 37.8125 44.9323 38.3333 44.8125 38.8125C44.6979 39.2865 44.5104 39.6979 44.25 40.0469C43.9896 40.3958 43.6484 40.6693 43.2266 40.8672C42.8047 41.0599 42.2917 41.1562 41.6875 41.1562C41.276 41.1562 40.8984 41.0964 40.5547 40.9766C40.2161 40.8568 39.9245 40.6719 39.6797 40.4219C39.4349 40.1719 39.2448 39.8464 39.1094 39.4453C38.9792 39.0443 38.9141 38.5625 38.9141 38V32.5469H40.3594V38.0156C40.3594 38.3958 40.401 38.7109 40.4844 38.9609C40.5729 39.2057 40.6901 39.401 40.8359 39.5469C40.987 39.6875 41.1536 39.7865 41.3359 39.8438C41.5234 39.901 41.7161 39.9297 41.9141 39.9297C42.5286 39.9297 43.0156 39.8125 43.375 39.5781C43.7344 39.3385 43.9922 39.0182 44.1484 38.6172C44.3099 38.2109 44.3906 37.7604 44.3906 37.2656ZM51.1562 39.9688C51.5 39.9688 51.8177 39.8984 52.1094 39.7578C52.401 39.6172 52.6406 39.4245 52.8281 39.1797C53.0156 38.9297 53.1224 38.6458 53.1484 38.3281H54.5234C54.4974 38.8281 54.3281 39.2943 54.0156 39.7266C53.7083 40.1536 53.3047 40.5 52.8047 40.7656C52.3047 41.026 51.7552 41.1562 51.1562 41.1562C50.5208 41.1562 49.9661 41.0443 49.4922 40.8203C49.0234 40.5964 48.6328 40.2891 48.3203 39.8984C48.013 39.5078 47.7812 39.0599 47.625 38.5547C47.474 38.0443 47.3984 37.5052 47.3984 36.9375V36.6094C47.3984 36.0417 47.474 35.5052 47.625 35C47.7812 34.4896 48.013 34.0391 48.3203 33.6484C48.6328 33.2578 49.0234 32.9505 49.4922 32.7266C49.9661 32.5026 50.5208 32.3906 51.1562 32.3906C51.8177 32.3906 52.3958 32.526 52.8906 32.7969C53.3854 33.0625 53.7734 33.4271 54.0547 33.8906C54.3411 34.349 54.4974 34.8698 54.5234 35.4531H53.1484C53.1224 35.1042 53.0234 34.7891 52.8516 34.5078C52.6849 34.2266 52.4557 34.0026 52.1641 33.8359C51.8776 33.6641 51.5417 33.5781 51.1562 33.5781C50.7135 33.5781 50.3411 33.6667 50.0391 33.8438C49.7422 34.0156 49.5052 34.25 49.3281 34.5469C49.1562 34.8385 49.0312 35.1641 48.9531 35.5234C48.8802 35.8776 48.8438 36.2396 48.8438 36.6094V36.9375C48.8438 37.3073 48.8802 37.6719 48.9531 38.0312C49.026 38.3906 49.1484 38.7161 49.3203 39.0078C49.4974 39.2995 49.7344 39.5339 50.0312 39.7109C50.3333 39.8828 50.7083 39.9688 51.1562 39.9688ZM57.6016 29V41H56.1484V29H57.6016ZM62.7656 32.5469L59.0781 36.4922L57.0156 38.6328L56.8984 37.0938L58.375 35.3281L61 32.5469H62.7656ZM61.4453 41L58.4297 36.9688L59.1797 35.6797L63.1484 41H61.4453ZM69.1797 38.7578C69.1797 38.5495 69.1328 38.3568 69.0391 38.1797C68.9505 37.9974 68.7656 37.8333 68.4844 37.6875C68.2083 37.5365 67.7917 37.4062 67.2344 37.2969C66.7656 37.1979 66.3411 37.0807 65.9609 36.9453C65.5859 36.8099 65.2656 36.6458 65 36.4531C64.7396 36.2604 64.5391 36.0339 64.3984 35.7734C64.2578 35.513 64.1875 35.2083 64.1875 34.8594C64.1875 34.526 64.2604 34.2109 64.4062 33.9141C64.5573 33.6172 64.7682 33.3542 65.0391 33.125C65.3151 32.8958 65.6458 32.7161 66.0312 32.5859C66.4167 32.4557 66.8464 32.3906 67.3203 32.3906C67.9974 32.3906 68.5755 32.5104 69.0547 32.75C69.5339 32.9896 69.901 33.3099 70.1562 33.7109C70.4115 34.1068 70.5391 34.5469 70.5391 35.0312H69.0938C69.0938 34.7969 69.0234 34.5703 68.8828 34.3516C68.7474 34.1276 68.5469 33.9427 68.2812 33.7969C68.0208 33.651 67.7005 33.5781 67.3203 33.5781C66.9193 33.5781 66.5938 33.6406 66.3438 33.7656C66.099 33.8854 65.9193 34.0391 65.8047 34.2266C65.6953 34.4141 65.6406 34.612 65.6406 34.8203C65.6406 34.9766 65.6667 35.1172 65.7188 35.2422C65.776 35.362 65.875 35.474 66.0156 35.5781C66.1562 35.6771 66.3542 35.7708 66.6094 35.8594C66.8646 35.9479 67.1901 36.0365 67.5859 36.125C68.2786 36.2812 68.849 36.4688 69.2969 36.6875C69.7448 36.9062 70.0781 37.1745 70.2969 37.4922C70.5156 37.8099 70.625 38.1953 70.625 38.6484C70.625 39.0182 70.5469 39.3568 70.3906 39.6641C70.2396 39.9714 70.0182 40.237 69.7266 40.4609C69.4401 40.6797 69.0964 40.8516 68.6953 40.9766C68.2995 41.0964 67.8542 41.1562 67.3594 41.1562C66.6146 41.1562 65.9844 41.0234 65.4688 40.7578C64.9531 40.4922 64.5625 40.1484 64.2969 39.7266C64.0312 39.3047 63.8984 38.8594 63.8984 38.3906H65.3516C65.3724 38.7865 65.487 39.1016 65.6953 39.3359C65.9036 39.5651 66.1589 39.7292 66.4609 39.8281C66.763 39.9219 67.0625 39.9688 67.3594 39.9688C67.7552 39.9688 68.0859 39.9167 68.3516 39.8125C68.6224 39.7083 68.8281 39.5651 68.9688 39.3828C69.1094 39.2005 69.1797 38.9922 69.1797 38.7578Z" fill="#1C1E53"/>
</svg>
