<svg width="105" height="48" viewBox="0 0 105 48" fill="none" xmlns="http://www.w3.org/2000/svg">
<path d="M3.23438 5.625V17H1.08594V5.625H3.23438ZM10.0625 5.625L5.5 11.1719L2.89062 13.9609L2.50781 11.875L4.32031 9.52344L7.42969 5.625H10.0625ZM7.67188 17L4.13281 11.6719L5.67188 10.2812L10.2266 17H7.67188ZM13.1328 10.2734V17H11.0703V8.54688H13.0234L13.1328 10.2734ZM15.7031 8.49219L15.6719 10.4141C15.5573 10.3932 15.4271 10.3776 15.2812 10.3672C15.1406 10.3568 15.0078 10.3516 14.8828 10.3516C14.5651 10.3516 14.2865 10.3958 14.0469 10.4844C13.8073 10.5677 13.6068 10.6901 13.4453 10.8516C13.2891 11.013 13.1693 11.2109 13.0859 11.4453C13.0026 11.6745 12.9557 11.9349 12.9453 12.2266L12.5 12.1719C12.5 11.6354 12.5547 11.138 12.6641 10.6797C12.7734 10.2214 12.9323 9.82031 13.1406 9.47656C13.349 9.13281 13.6094 8.86719 13.9219 8.67969C14.2396 8.48698 14.6042 8.39062 15.0156 8.39062C15.1302 8.39062 15.2526 8.40104 15.3828 8.42188C15.5182 8.4375 15.625 8.46094 15.7031 8.49219ZM19.0234 8.54688V17H16.9531V8.54688H19.0234ZM16.8125 6.33594C16.8125 6.02865 16.9167 5.77344 17.125 5.57031C17.3385 5.36719 17.625 5.26562 17.9844 5.26562C18.3438 5.26562 18.6276 5.36719 18.8359 5.57031C19.0495 5.77344 19.1562 6.02865 19.1562 6.33594C19.1562 6.63802 19.0495 6.89062 18.8359 7.09375C18.6276 7.29688 18.3438 7.39844 17.9844 7.39844C17.625 7.39844 17.3385 7.29688 17.125 7.09375C16.9167 6.89062 16.8125 6.63802 16.8125 6.33594ZM25.6406 14.6875C25.6406 14.5104 25.5938 14.3516 25.5 14.2109C25.4062 14.0703 25.2292 13.9427 24.9688 13.8281C24.7135 13.7083 24.3385 13.5964 23.8438 13.4922C23.4062 13.3984 23.0026 13.2812 22.6328 13.1406C22.263 13 21.9453 12.8307 21.6797 12.6328C21.4141 12.4297 21.2057 12.1927 21.0547 11.9219C20.9089 11.6458 20.8359 11.3281 20.8359 10.9688C20.8359 10.6198 20.9115 10.2917 21.0625 9.98438C21.2135 9.67188 21.4323 9.39844 21.7188 9.16406C22.0052 8.92448 22.3542 8.73698 22.7656 8.60156C23.1771 8.46094 23.6406 8.39062 24.1562 8.39062C24.875 8.39062 25.4922 8.50781 26.0078 8.74219C26.5286 8.97656 26.9271 9.29948 27.2031 9.71094C27.4792 10.1172 27.6172 10.5755 27.6172 11.0859H25.5547C25.5547 10.862 25.5026 10.6589 25.3984 10.4766C25.2995 10.2943 25.1458 10.1484 24.9375 10.0391C24.7292 9.92448 24.4661 9.86719 24.1484 9.86719C23.862 9.86719 23.6198 9.91406 23.4219 10.0078C23.2292 10.1016 23.0833 10.224 22.9844 10.375C22.8854 10.526 22.8359 10.6927 22.8359 10.875C22.8359 11.0104 22.862 11.1328 22.9141 11.2422C22.9714 11.3464 23.0625 11.4427 23.1875 11.5312C23.3125 11.6198 23.4818 11.7005 23.6953 11.7734C23.9141 11.8464 24.1823 11.9167 24.5 11.9844C25.1302 12.1094 25.6797 12.276 26.1484 12.4844C26.6224 12.6875 26.9922 12.9583 27.2578 13.2969C27.5234 13.6354 27.6562 14.0677 27.6562 14.5938C27.6562 14.9688 27.5755 15.3125 27.4141 15.625C27.2526 15.9323 27.0182 16.2005 26.7109 16.4297C26.4036 16.6589 26.0365 16.8385 25.6094 16.9688C25.1823 17.0938 24.7005 17.1562 24.1641 17.1562C23.388 17.1562 22.7318 17.0182 22.1953 16.7422C21.6589 16.4609 21.2526 16.1068 20.9766 15.6797C20.7005 15.2474 20.5625 14.7995 20.5625 14.3359H22.5391C22.5547 14.6641 22.6432 14.9271 22.8047 15.125C22.9661 15.3229 23.1693 15.4661 23.4141 15.5547C23.6641 15.638 23.9271 15.6797 24.2031 15.6797C24.5156 15.6797 24.7786 15.638 24.9922 15.5547C25.2057 15.4661 25.3672 15.349 25.4766 15.2031C25.5859 15.0521 25.6406 14.8802 25.6406 14.6875ZM33.2266 8.54688V10.0312H28.3828V8.54688H33.2266ZM29.6797 6.46875H31.75V14.5625C31.75 14.8125 31.7839 15.0052 31.8516 15.1406C31.9193 15.276 32.0208 15.3672 32.1562 15.4141C32.2917 15.4609 32.4531 15.4844 32.6406 15.4844C32.776 15.4844 32.901 15.4766 33.0156 15.4609C33.1302 15.4453 33.2266 15.4297 33.3047 15.4141L33.3125 16.9609C33.1406 17.0182 32.9453 17.0651 32.7266 17.1016C32.513 17.138 32.2708 17.1562 32 17.1562C31.5365 17.1562 31.1302 17.0781 30.7812 16.9219C30.4323 16.7604 30.1615 16.5026 29.9688 16.1484C29.776 15.7891 29.6797 15.3151 29.6797 14.7266V6.46875ZM36.7891 8.54688V17H34.7188V8.54688H36.7891ZM34.5781 6.33594C34.5781 6.02865 34.6823 5.77344 34.8906 5.57031C35.1042 5.36719 35.3906 5.26562 35.75 5.26562C36.1094 5.26562 36.3932 5.36719 36.6016 5.57031C36.8151 5.77344 36.9219 6.02865 36.9219 6.33594C36.9219 6.63802 36.8151 6.89062 36.6016 7.09375C36.3932 7.29688 36.1094 7.39844 35.75 7.39844C35.3906 7.39844 35.1042 7.29688 34.8906 7.09375C34.6823 6.89062 34.5781 6.63802 34.5781 6.33594ZM40.7812 10.3516V17H38.7188V8.54688H40.6562L40.7812 10.3516ZM40.4531 12.4688H39.8438C39.849 11.8542 39.9323 11.2969 40.0938 10.7969C40.2552 10.2969 40.4818 9.86719 40.7734 9.50781C41.0703 9.14844 41.4219 8.8724 41.8281 8.67969C42.2344 8.48698 42.6875 8.39062 43.1875 8.39062C43.5938 8.39062 43.9609 8.44792 44.2891 8.5625C44.6172 8.67708 44.8984 8.85938 45.1328 9.10938C45.3724 9.35938 45.5547 9.6875 45.6797 10.0938C45.8099 10.4948 45.875 10.9896 45.875 11.5781V17H43.7969V11.5625C43.7969 11.1771 43.7396 10.8724 43.625 10.6484C43.5156 10.4245 43.3542 10.2656 43.1406 10.1719C42.9323 10.0781 42.6745 10.0312 42.3672 10.0312C42.0495 10.0312 41.7708 10.0964 41.5312 10.2266C41.2969 10.3516 41.099 10.526 40.9375 10.75C40.7812 10.974 40.6615 11.2318 40.5781 11.5234C40.4948 11.8151 40.4531 12.1302 40.4531 12.4688ZM54.6328 14.8203L56.8984 5.625H58.125L58.2031 7.5625L55.7812 17H54.4844L54.6328 14.8203ZM53.2031 5.625L55.0625 14.7891V17H53.6484L51.0703 5.625H53.2031ZM60.5547 14.75L62.3828 5.625H64.5234L61.9453 17H60.5312L60.5547 14.75ZM58.7109 5.625L60.9766 14.8516L61.1094 17H59.8125L57.3984 7.55469L57.4922 5.625H58.7109ZM70.1172 15.2031V11.3047C70.1172 11.0182 70.0677 10.7708 69.9688 10.5625C69.8698 10.3542 69.7188 10.1927 69.5156 10.0781C69.3125 9.96354 69.0547 9.90625 68.7422 9.90625C68.4661 9.90625 68.224 9.95312 68.0156 10.0469C67.8125 10.1406 67.6562 10.2734 67.5469 10.4453C67.4375 10.612 67.3828 10.8047 67.3828 11.0234H65.3125C65.3125 10.6745 65.3958 10.3438 65.5625 10.0312C65.7292 9.71354 65.9661 9.43229 66.2734 9.1875C66.5859 8.9375 66.9583 8.74219 67.3906 8.60156C67.8281 8.46094 68.3177 8.39062 68.8594 8.39062C69.5 8.39062 70.0703 8.5 70.5703 8.71875C71.0755 8.93229 71.4714 9.25521 71.7578 9.6875C72.0495 10.1198 72.1953 10.6641 72.1953 11.3203V15.0078C72.1953 15.4297 72.2214 15.7917 72.2734 16.0938C72.3307 16.3906 72.4141 16.6484 72.5234 16.8672V17H70.4219C70.3229 16.7865 70.2474 16.5156 70.1953 16.1875C70.1432 15.8542 70.1172 15.526 70.1172 15.2031ZM70.4062 11.8516L70.4219 13.0781H69.1172C68.7943 13.0781 68.5104 13.112 68.2656 13.1797C68.0208 13.2422 67.8203 13.3359 67.6641 13.4609C67.5078 13.5807 67.3906 13.7266 67.3125 13.8984C67.2344 14.0651 67.1953 14.2552 67.1953 14.4688C67.1953 14.6771 67.2422 14.8646 67.3359 15.0312C67.4349 15.1979 67.5755 15.3307 67.7578 15.4297C67.9453 15.5234 68.1641 15.5703 68.4141 15.5703C68.7786 15.5703 69.0964 15.4974 69.3672 15.3516C69.638 15.2005 69.849 15.0182 70 14.8047C70.151 14.5911 70.2318 14.388 70.2422 14.1953L70.8359 15.0859C70.763 15.2995 70.6536 15.526 70.5078 15.7656C70.362 16.0052 70.1745 16.2292 69.9453 16.4375C69.7161 16.6458 69.4401 16.8177 69.1172 16.9531C68.7943 17.0885 68.4193 17.1562 67.9922 17.1562C67.4453 17.1562 66.9557 17.0469 66.5234 16.8281C66.0911 16.6094 65.75 16.3099 65.5 15.9297C65.25 15.5495 65.125 15.1172 65.125 14.6328C65.125 14.1849 65.2083 13.7891 65.375 13.4453C65.5417 13.1016 65.7891 12.8125 66.1172 12.5781C66.4453 12.3385 66.8516 12.1589 67.3359 12.0391C67.8255 11.9141 68.3854 11.8516 69.0156 11.8516H70.4062ZM78.0547 8.54688V10.0312H73.2109V8.54688H78.0547ZM74.5078 6.46875H76.5781V14.5625C76.5781 14.8125 76.612 15.0052 76.6797 15.1406C76.7474 15.276 76.849 15.3672 76.9844 15.4141C77.1198 15.4609 77.2812 15.4844 77.4688 15.4844C77.6042 15.4844 77.7292 15.4766 77.8438 15.4609C77.9583 15.4453 78.0547 15.4297 78.1328 15.4141L78.1406 16.9609C77.9688 17.0182 77.7734 17.0651 77.5547 17.1016C77.3411 17.138 77.099 17.1562 76.8281 17.1562C76.3646 17.1562 75.9583 17.0781 75.6094 16.9219C75.2604 16.7604 74.9896 16.5026 74.7969 16.1484C74.6042 15.7891 74.5078 15.3151 74.5078 14.7266V6.46875ZM84.0781 14.6875C84.0781 14.5104 84.0312 14.3516 83.9375 14.2109C83.8438 14.0703 83.6667 13.9427 83.4062 13.8281C83.151 13.7083 82.776 13.5964 82.2812 13.4922C81.8438 13.3984 81.4401 13.2812 81.0703 13.1406C80.7005 13 80.3828 12.8307 80.1172 12.6328C79.8516 12.4297 79.6432 12.1927 79.4922 11.9219C79.3464 11.6458 79.2734 11.3281 79.2734 10.9688C79.2734 10.6198 79.349 10.2917 79.5 9.98438C79.651 9.67188 79.8698 9.39844 80.1562 9.16406C80.4427 8.92448 80.7917 8.73698 81.2031 8.60156C81.6146 8.46094 82.0781 8.39062 82.5938 8.39062C83.3125 8.39062 83.9297 8.50781 84.4453 8.74219C84.9661 8.97656 85.3646 9.29948 85.6406 9.71094C85.9167 10.1172 86.0547 10.5755 86.0547 11.0859H83.9922C83.9922 10.862 83.9401 10.6589 83.8359 10.4766C83.737 10.2943 83.5833 10.1484 83.375 10.0391C83.1667 9.92448 82.9036 9.86719 82.5859 9.86719C82.2995 9.86719 82.0573 9.91406 81.8594 10.0078C81.6667 10.1016 81.5208 10.224 81.4219 10.375C81.3229 10.526 81.2734 10.6927 81.2734 10.875C81.2734 11.0104 81.2995 11.1328 81.3516 11.2422C81.4089 11.3464 81.5 11.4427 81.625 11.5312C81.75 11.6198 81.9193 11.7005 82.1328 11.7734C82.3516 11.8464 82.6198 11.9167 82.9375 11.9844C83.5677 12.1094 84.1172 12.276 84.5859 12.4844C85.0599 12.6875 85.4297 12.9583 85.6953 13.2969C85.9609 13.6354 86.0938 14.0677 86.0938 14.5938C86.0938 14.9688 86.013 15.3125 85.8516 15.625C85.6901 15.9323 85.4557 16.2005 85.1484 16.4297C84.8411 16.6589 84.474 16.8385 84.0469 16.9688C83.6198 17.0938 83.138 17.1562 82.6016 17.1562C81.8255 17.1562 81.1693 17.0182 80.6328 16.7422C80.0964 16.4609 79.6901 16.1068 79.4141 15.6797C79.138 15.2474 79 14.7995 79 14.3359H80.9766C80.9922 14.6641 81.0807 14.9271 81.2422 15.125C81.4036 15.3229 81.6068 15.4661 81.8516 15.5547C82.1016 15.638 82.3646 15.6797 82.6406 15.6797C82.9531 15.6797 83.2161 15.638 83.4297 15.5547C83.6432 15.4661 83.8047 15.349 83.9141 15.2031C84.0234 15.0521 84.0781 14.8802 84.0781 14.6875ZM87.2969 12.8594V12.6953C87.2969 12.0755 87.3854 11.5052 87.5625 10.9844C87.7396 10.4583 87.9974 10.0026 88.3359 9.61719C88.6745 9.23177 89.0885 8.93229 89.5781 8.71875C90.0677 8.5 90.625 8.39062 91.25 8.39062C91.8854 8.39062 92.4479 8.5 92.9375 8.71875C93.4323 8.93229 93.849 9.23177 94.1875 9.61719C94.526 10.0026 94.7839 10.4583 94.9609 10.9844C95.138 11.5052 95.2266 12.0755 95.2266 12.6953V12.8594C95.2266 13.474 95.138 14.0443 94.9609 14.5703C94.7839 15.0911 94.526 15.5469 94.1875 15.9375C93.849 16.3229 93.4349 16.6224 92.9453 16.8359C92.4557 17.0495 91.8958 17.1562 91.2656 17.1562C90.6406 17.1562 90.0807 17.0495 89.5859 16.8359C89.0911 16.6224 88.6745 16.3229 88.3359 15.9375C87.9974 15.5469 87.7396 15.0911 87.5625 14.5703C87.3854 14.0443 87.2969 13.474 87.2969 12.8594ZM89.3594 12.6953V12.8594C89.3594 13.2292 89.3958 13.5755 89.4688 13.8984C89.5417 14.2214 89.6536 14.5052 89.8047 14.75C89.9557 14.9948 90.151 15.1875 90.3906 15.3281C90.6354 15.4635 90.9271 15.5312 91.2656 15.5312C91.599 15.5312 91.8854 15.4635 92.125 15.3281C92.3646 15.1875 92.5599 14.9948 92.7109 14.75C92.8672 14.5052 92.9818 14.2214 93.0547 13.8984C93.1276 13.5755 93.1641 13.2292 93.1641 12.8594V12.6953C93.1641 12.3307 93.1276 11.9896 93.0547 11.6719C92.9818 11.349 92.8672 11.0651 92.7109 10.8203C92.5599 10.5703 92.362 10.375 92.1172 10.2344C91.8776 10.0885 91.5885 10.0156 91.25 10.0156C90.9167 10.0156 90.6302 10.0885 90.3906 10.2344C90.151 10.375 89.9557 10.5703 89.8047 10.8203C89.6536 11.0651 89.5417 11.349 89.4688 11.6719C89.3958 11.9896 89.3594 12.3307 89.3594 12.6953ZM98.75 10.3516V17H96.6875V8.54688H98.625L98.75 10.3516ZM98.4219 12.4688H97.8125C97.8177 11.8542 97.901 11.2969 98.0625 10.7969C98.224 10.2969 98.4505 9.86719 98.7422 9.50781C99.0391 9.14844 99.3906 8.8724 99.7969 8.67969C100.203 8.48698 100.656 8.39062 101.156 8.39062C101.562 8.39062 101.93 8.44792 102.258 8.5625C102.586 8.67708 102.867 8.85938 103.102 9.10938C103.341 9.35938 103.523 9.6875 103.648 10.0938C103.779 10.4948 103.844 10.9896 103.844 11.5781V17H101.766V11.5625C101.766 11.1771 101.708 10.8724 101.594 10.6484C101.484 10.4245 101.323 10.2656 101.109 10.1719C100.901 10.0781 100.643 10.0312 100.336 10.0312C100.018 10.0312 99.7396 10.0964 99.5 10.2266C99.2656 10.3516 99.0677 10.526 98.9062 10.75C98.75 10.974 98.6302 11.2318 98.5469 11.5234C98.4635 11.8151 98.4219 12.1302 98.4219 12.4688Z" fill="#282938"/>
<path d="M8.21875 39.7734V41H2.53125V39.7734H8.21875ZM2.82812 29.625V41H1.32031V29.625H2.82812ZM9.34375 36.8672V36.6875C9.34375 36.0781 9.43229 35.513 9.60938 34.9922C9.78646 34.4661 10.0417 34.0104 10.375 33.625C10.7083 33.2344 11.112 32.9323 11.5859 32.7188C12.0599 32.5 12.5911 32.3906 13.1797 32.3906C13.7734 32.3906 14.3073 32.5 14.7812 32.7188C15.2604 32.9323 15.6667 33.2344 16 33.625C16.3385 34.0104 16.5964 34.4661 16.7734 34.9922C16.9505 35.513 17.0391 36.0781 17.0391 36.6875V36.8672C17.0391 37.4766 16.9505 38.0417 16.7734 38.5625C16.5964 39.0833 16.3385 39.5391 16 39.9297C15.6667 40.3151 15.263 40.6172 14.7891 40.8359C14.3203 41.0495 13.7891 41.1562 13.1953 41.1562C12.6016 41.1562 12.0677 41.0495 11.5938 40.8359C11.1198 40.6172 10.7135 40.3151 10.375 39.9297C10.0417 39.5391 9.78646 39.0833 9.60938 38.5625C9.43229 38.0417 9.34375 37.4766 9.34375 36.8672ZM10.7891 36.6875V36.8672C10.7891 37.2891 10.8385 37.6875 10.9375 38.0625C11.0365 38.4323 11.1849 38.7604 11.3828 39.0469C11.5859 39.3333 11.8385 39.5599 12.1406 39.7266C12.4427 39.888 12.7943 39.9688 13.1953 39.9688C13.5911 39.9688 13.9375 39.888 14.2344 39.7266C14.5365 39.5599 14.7865 39.3333 14.9844 39.0469C15.1823 38.7604 15.3307 38.4323 15.4297 38.0625C15.5339 37.6875 15.5859 37.2891 15.5859 36.8672V36.6875C15.5859 36.2708 15.5339 35.8776 15.4297 35.5078C15.3307 35.1328 15.1797 34.8021 14.9766 34.5156C14.7786 34.224 14.5286 33.9948 14.2266 33.8281C13.9297 33.6615 13.5807 33.5781 13.1797 33.5781C12.7839 33.5781 12.4349 33.6615 12.1328 33.8281C11.8359 33.9948 11.5859 34.224 11.3828 34.5156C11.1849 34.8021 11.0365 35.1328 10.9375 35.5078C10.8385 35.8776 10.7891 36.2708 10.7891 36.6875ZM24.0234 39.0469V32.5469H25.4766V41H24.0938L24.0234 39.0469ZM24.2969 37.2656L24.8984 37.25C24.8984 37.8125 24.8385 38.3333 24.7188 38.8125C24.6042 39.2865 24.4167 39.6979 24.1562 40.0469C23.8958 40.3958 23.5547 40.6693 23.1328 40.8672C22.7109 41.0599 22.1979 41.1562 21.5938 41.1562C21.1823 41.1562 20.8047 41.0964 20.4609 40.9766C20.1224 40.8568 19.8307 40.6719 19.5859 40.4219C19.3411 40.1719 19.151 39.8464 19.0156 39.4453C18.8854 39.0443 18.8203 38.5625 18.8203 38V32.5469H20.2656V38.0156C20.2656 38.3958 20.3073 38.7109 20.3906 38.9609C20.4792 39.2057 20.5964 39.401 20.7422 39.5469C20.8932 39.6875 21.0599 39.7865 21.2422 39.8438C21.4297 39.901 21.6224 39.9297 21.8203 39.9297C22.4349 39.9297 22.9219 39.8125 23.2812 39.5781C23.6406 39.3385 23.8984 39.0182 24.0547 38.6172C24.2161 38.2109 24.2969 37.7604 24.2969 37.2656ZM29.25 32.5469V41H27.7969V32.5469H29.25ZM27.6875 30.3047C27.6875 30.0703 27.7578 29.8724 27.8984 29.7109C28.0443 29.5495 28.2578 29.4688 28.5391 29.4688C28.8151 29.4688 29.026 29.5495 29.1719 29.7109C29.3229 29.8724 29.3984 30.0703 29.3984 30.3047C29.3984 30.5286 29.3229 30.7214 29.1719 30.8828C29.026 31.0391 28.8151 31.1172 28.5391 31.1172C28.2578 31.1172 28.0443 31.0391 27.8984 30.8828C27.7578 30.7214 27.6875 30.5286 27.6875 30.3047ZM36.4922 38.7578C36.4922 38.5495 36.4453 38.3568 36.3516 38.1797C36.263 37.9974 36.0781 37.8333 35.7969 37.6875C35.5208 37.5365 35.1042 37.4062 34.5469 37.2969C34.0781 37.1979 33.6536 37.0807 33.2734 36.9453C32.8984 36.8099 32.5781 36.6458 32.3125 36.4531C32.0521 36.2604 31.8516 36.0339 31.7109 35.7734C31.5703 35.513 31.5 35.2083 31.5 34.8594C31.5 34.526 31.5729 34.2109 31.7188 33.9141C31.8698 33.6172 32.0807 33.3542 32.3516 33.125C32.6276 32.8958 32.9583 32.7161 33.3438 32.5859C33.7292 32.4557 34.1589 32.3906 34.6328 32.3906C35.3099 32.3906 35.888 32.5104 36.3672 32.75C36.8464 32.9896 37.2135 33.3099 37.4688 33.7109C37.724 34.1068 37.8516 34.5469 37.8516 35.0312H36.4062C36.4062 34.7969 36.3359 34.5703 36.1953 34.3516C36.0599 34.1276 35.8594 33.9427 35.5938 33.7969C35.3333 33.651 35.013 33.5781 34.6328 33.5781C34.2318 33.5781 33.9062 33.6406 33.6562 33.7656C33.4115 33.8854 33.2318 34.0391 33.1172 34.2266C33.0078 34.4141 32.9531 34.612 32.9531 34.8203C32.9531 34.9766 32.9792 35.1172 33.0312 35.2422C33.0885 35.362 33.1875 35.474 33.3281 35.5781C33.4688 35.6771 33.6667 35.7708 33.9219 35.8594C34.1771 35.9479 34.5026 36.0365 34.8984 36.125C35.5911 36.2812 36.1615 36.4688 36.6094 36.6875C37.0573 36.9062 37.3906 37.1745 37.6094 37.4922C37.8281 37.8099 37.9375 38.1953 37.9375 38.6484C37.9375 39.0182 37.8594 39.3568 37.7031 39.6641C37.5521 39.9714 37.3307 40.237 37.0391 40.4609C36.7526 40.6797 36.4089 40.8516 36.0078 40.9766C35.612 41.0964 35.1667 41.1562 34.6719 41.1562C33.9271 41.1562 33.2969 41.0234 32.7812 40.7578C32.2656 40.4922 31.875 40.1484 31.6094 39.7266C31.3438 39.3047 31.2109 38.8594 31.2109 38.3906H32.6641C32.6849 38.7865 32.7995 39.1016 33.0078 39.3359C33.2161 39.5651 33.4714 39.7292 33.7734 39.8281C34.0755 39.9219 34.375 39.9688 34.6719 39.9688C35.0677 39.9688 35.3984 39.9167 35.6641 39.8125C35.9349 39.7083 36.1406 39.5651 36.2812 39.3828C36.4219 39.2005 36.4922 38.9922 36.4922 38.7578ZM47.6953 39.2734L51.0469 29.625H52.6797L48.4688 41H47.3047L47.6953 39.2734ZM44.5625 29.625L47.8828 39.2734L48.2969 41H47.1328L42.9297 29.625H44.5625ZM58.9453 39.0469V32.5469H60.3984V41H59.0156L58.9453 39.0469ZM59.2188 37.2656L59.8203 37.25C59.8203 37.8125 59.7604 38.3333 59.6406 38.8125C59.526 39.2865 59.3385 39.6979 59.0781 40.0469C58.8177 40.3958 58.4766 40.6693 58.0547 40.8672C57.6328 41.0599 57.1198 41.1562 56.5156 41.1562C56.1042 41.1562 55.7266 41.0964 55.3828 40.9766C55.0443 40.8568 54.7526 40.6719 54.5078 40.4219C54.263 40.1719 54.0729 39.8464 53.9375 39.4453C53.8073 39.0443 53.7422 38.5625 53.7422 38V32.5469H55.1875V38.0156C55.1875 38.3958 55.2292 38.7109 55.3125 38.9609C55.401 39.2057 55.5182 39.401 55.6641 39.5469C55.8151 39.6875 55.9818 39.7865 56.1641 39.8438C56.3516 39.901 56.5443 39.9297 56.7422 39.9297C57.3568 39.9297 57.8438 39.8125 58.2031 39.5781C58.5625 39.3385 58.8203 39.0182 58.9766 38.6172C59.138 38.2109 59.2188 37.7604 59.2188 37.2656ZM64.1719 32.5469V41H62.7188V32.5469H64.1719ZM62.6094 30.3047C62.6094 30.0703 62.6797 29.8724 62.8203 29.7109C62.9661 29.5495 63.1797 29.4688 63.4609 29.4688C63.737 29.4688 63.9479 29.5495 64.0938 29.7109C64.2448 29.8724 64.3203 30.0703 64.3203 30.3047C64.3203 30.5286 64.2448 30.7214 64.0938 30.8828C63.9479 31.0391 63.737 31.1172 63.4609 31.1172C63.1797 31.1172 62.9661 31.0391 62.8203 30.8828C62.6797 30.7214 62.6094 30.5286 62.6094 30.3047ZM70.0312 32.5469V33.6562H65.4609V32.5469H70.0312ZM67.0078 30.4922H68.4531V38.9062C68.4531 39.1927 68.4974 39.4089 68.5859 39.5547C68.6745 39.7005 68.7891 39.7969 68.9297 39.8438C69.0703 39.8906 69.2214 39.9141 69.3828 39.9141C69.5026 39.9141 69.6276 39.9036 69.7578 39.8828C69.8932 39.8568 69.9948 39.8359 70.0625 39.8203L70.0703 41C69.9557 41.0365 69.8047 41.0703 69.6172 41.1016C69.4349 41.138 69.2135 41.1562 68.9531 41.1562C68.599 41.1562 68.2734 41.0859 67.9766 40.9453C67.6797 40.8047 67.4427 40.5703 67.2656 40.2422C67.0938 39.9089 67.0078 39.4609 67.0078 38.8984V30.4922ZM75.2656 32.5469V33.6562H70.6953V32.5469H75.2656ZM72.2422 30.4922H73.6875V38.9062C73.6875 39.1927 73.7318 39.4089 73.8203 39.5547C73.9089 39.7005 74.0234 39.7969 74.1641 39.8438C74.3047 39.8906 74.4557 39.9141 74.6172 39.9141C74.737 39.9141 74.862 39.9036 74.9922 39.8828C75.1276 39.8568 75.2292 39.8359 75.2969 39.8203L75.3047 41C75.1901 41.0365 75.0391 41.0703 74.8516 41.1016C74.6693 41.138 74.4479 41.1562 74.1875 41.1562C73.8333 41.1562 73.5078 41.0859 73.2109 40.9453C72.9141 40.8047 72.6771 40.5703 72.5 40.2422C72.3281 39.9089 72.2422 39.4609 72.2422 38.8984V30.4922ZM76.4219 36.8672V36.6875C76.4219 36.0781 76.5104 35.513 76.6875 34.9922C76.8646 34.4661 77.1198 34.0104 77.4531 33.625C77.7865 33.2344 78.1901 32.9323 78.6641 32.7188C79.138 32.5 79.6693 32.3906 80.2578 32.3906C80.8516 32.3906 81.3854 32.5 81.8594 32.7188C82.3385 32.9323 82.7448 33.2344 83.0781 33.625C83.4167 34.0104 83.6745 34.4661 83.8516 34.9922C84.0286 35.513 84.1172 36.0781 84.1172 36.6875V36.8672C84.1172 37.4766 84.0286 38.0417 83.8516 38.5625C83.6745 39.0833 83.4167 39.5391 83.0781 39.9297C82.7448 40.3151 82.3411 40.6172 81.8672 40.8359C81.3984 41.0495 80.8672 41.1562 80.2734 41.1562C79.6797 41.1562 79.1458 41.0495 78.6719 40.8359C78.1979 40.6172 77.7917 40.3151 77.4531 39.9297C77.1198 39.5391 76.8646 39.0833 76.6875 38.5625C76.5104 38.0417 76.4219 37.4766 76.4219 36.8672ZM77.8672 36.6875V36.8672C77.8672 37.2891 77.9167 37.6875 78.0156 38.0625C78.1146 38.4323 78.263 38.7604 78.4609 39.0469C78.6641 39.3333 78.9167 39.5599 79.2188 39.7266C79.5208 39.888 79.8724 39.9688 80.2734 39.9688C80.6693 39.9688 81.0156 39.888 81.3125 39.7266C81.6146 39.5599 81.8646 39.3333 82.0625 39.0469C82.2604 38.7604 82.4089 38.4323 82.5078 38.0625C82.612 37.6875 82.6641 37.2891 82.6641 36.8672V36.6875C82.6641 36.2708 82.612 35.8776 82.5078 35.5078C82.4089 35.1328 82.2578 34.8021 82.0547 34.5156C81.8568 34.224 81.6068 33.9948 81.3047 33.8281C81.0078 33.6615 80.6589 33.5781 80.2578 33.5781C79.862 33.5781 79.513 33.6615 79.2109 33.8281C78.9141 33.9948 78.6641 34.224 78.4609 34.5156C78.263 34.8021 78.1146 35.1328 78.0156 35.5078C77.9167 35.8776 77.8672 36.2708 77.8672 36.6875ZM87.375 34.3516V41H85.9297V32.5469H87.2969L87.375 34.3516ZM87.0312 36.4531L86.4297 36.4297C86.4349 35.8516 86.5208 35.3177 86.6875 34.8281C86.8542 34.3333 87.0885 33.9036 87.3906 33.5391C87.6927 33.1745 88.0521 32.8932 88.4688 32.6953C88.8906 32.4922 89.3568 32.3906 89.8672 32.3906C90.2839 32.3906 90.6589 32.4479 90.9922 32.5625C91.3255 32.6719 91.6094 32.849 91.8438 33.0938C92.0833 33.3385 92.2656 33.6562 92.3906 34.0469C92.5156 34.4323 92.5781 34.9036 92.5781 35.4609V41H91.125V35.4453C91.125 35.0026 91.0599 34.6484 90.9297 34.3828C90.7995 34.112 90.6094 33.9167 90.3594 33.7969C90.1094 33.6719 89.8021 33.6094 89.4375 33.6094C89.0781 33.6094 88.75 33.6849 88.4531 33.8359C88.1615 33.987 87.9089 34.1953 87.6953 34.4609C87.487 34.7266 87.3229 35.0312 87.2031 35.375C87.0885 35.7135 87.0312 36.0729 87.0312 36.4531Z" fill="#1C1E53"/>
</svg>
