<svg width="115" height="48" viewBox="0 0 115 48" fill="none" xmlns="http://www.w3.org/2000/svg">
<path d="M3.23438 5.625V17H1.08594V5.625H3.23438ZM10.0625 5.625L5.5 11.1719L2.89062 13.9609L2.50781 11.875L4.32031 9.52344L7.42969 5.625H10.0625ZM7.67188 17L4.13281 11.6719L5.67188 10.2812L10.2266 17H7.67188ZM15.7266 15.2031V11.3047C15.7266 11.0182 15.6771 10.7708 15.5781 10.5625C15.4792 10.3542 15.3281 10.1927 15.125 10.0781C14.9219 9.96354 14.6641 9.90625 14.3516 9.90625C14.0755 9.90625 13.8333 9.95312 13.625 10.0469C13.4219 10.1406 13.2656 10.2734 13.1562 10.4453C13.0469 10.612 12.9922 10.8047 12.9922 11.0234H10.9219C10.9219 10.6745 11.0052 10.3438 11.1719 10.0312C11.3385 9.71354 11.5755 9.43229 11.8828 9.1875C12.1953 8.9375 12.5677 8.74219 13 8.60156C13.4375 8.46094 13.9271 8.39062 14.4688 8.39062C15.1094 8.39062 15.6797 8.5 16.1797 8.71875C16.6849 8.93229 17.0807 9.25521 17.3672 9.6875C17.6589 10.1198 17.8047 10.6641 17.8047 11.3203V15.0078C17.8047 15.4297 17.8307 15.7917 17.8828 16.0938C17.9401 16.3906 18.0234 16.6484 18.1328 16.8672V17H16.0312C15.9323 16.7865 15.8568 16.5156 15.8047 16.1875C15.7526 15.8542 15.7266 15.526 15.7266 15.2031ZM16.0156 11.8516L16.0312 13.0781H14.7266C14.4036 13.0781 14.1198 13.112 13.875 13.1797C13.6302 13.2422 13.4297 13.3359 13.2734 13.4609C13.1172 13.5807 13 13.7266 12.9219 13.8984C12.8438 14.0651 12.8047 14.2552 12.8047 14.4688C12.8047 14.6771 12.8516 14.8646 12.9453 15.0312C13.0443 15.1979 13.1849 15.3307 13.3672 15.4297C13.5547 15.5234 13.7734 15.5703 14.0234 15.5703C14.388 15.5703 14.7057 15.4974 14.9766 15.3516C15.2474 15.2005 15.4583 15.0182 15.6094 14.8047C15.7604 14.5911 15.8411 14.388 15.8516 14.1953L16.4453 15.0859C16.3724 15.2995 16.263 15.526 16.1172 15.7656C15.9714 16.0052 15.7839 16.2292 15.5547 16.4375C15.3255 16.6458 15.0495 16.8177 14.7266 16.9531C14.4036 17.0885 14.0286 17.1562 13.6016 17.1562C13.0547 17.1562 12.5651 17.0469 12.1328 16.8281C11.7005 16.6094 11.3594 16.3099 11.1094 15.9297C10.8594 15.5495 10.7344 15.1172 10.7344 14.6328C10.7344 14.1849 10.8177 13.7891 10.9844 13.4453C11.151 13.1016 11.3984 12.8125 11.7266 12.5781C12.0547 12.3385 12.4609 12.1589 12.9453 12.0391C13.4349 11.9141 13.9948 11.8516 14.625 11.8516H16.0156ZM23.6641 8.54688V10.0312H18.8203V8.54688H23.6641ZM20.1172 6.46875H22.1875V14.5625C22.1875 14.8125 22.2214 15.0052 22.2891 15.1406C22.3568 15.276 22.4583 15.3672 22.5938 15.4141C22.7292 15.4609 22.8906 15.4844 23.0781 15.4844C23.2135 15.4844 23.3385 15.4766 23.4531 15.4609C23.5677 15.4453 23.6641 15.4297 23.7422 15.4141L23.75 16.9609C23.5781 17.0182 23.3828 17.0651 23.1641 17.1016C22.9505 17.138 22.7083 17.1562 22.4375 17.1562C21.974 17.1562 21.5677 17.0781 21.2188 16.9219C20.8698 16.7604 20.599 16.5026 20.4062 16.1484C20.2135 15.7891 20.1172 15.3151 20.1172 14.7266V6.46875ZM27.0625 5V17H24.9922V5H27.0625ZM26.7344 12.4688H26.125C26.125 11.8802 26.2031 11.3385 26.3594 10.8438C26.5156 10.349 26.737 9.91927 27.0234 9.55469C27.3099 9.1849 27.651 8.89844 28.0469 8.69531C28.4479 8.49219 28.8906 8.39062 29.375 8.39062C29.7917 8.39062 30.1693 8.45052 30.5078 8.57031C30.8516 8.6849 31.1458 8.86979 31.3906 9.125C31.6354 9.38021 31.8229 9.71354 31.9531 10.125C32.0885 10.5312 32.1562 11.026 32.1562 11.6094V17H30.0781V11.5938C30.0781 11.2031 30.0208 10.8958 29.9062 10.6719C29.7917 10.4427 29.6276 10.2786 29.4141 10.1797C29.2057 10.0807 28.9479 10.0312 28.6406 10.0312C28.3073 10.0312 28.0208 10.0964 27.7812 10.2266C27.5417 10.3516 27.3438 10.526 27.1875 10.75C27.0365 10.974 26.9219 11.2318 26.8438 11.5234C26.7708 11.8151 26.7344 12.1302 26.7344 12.4688ZM36.0391 10.2734V17H33.9766V8.54688H35.9297L36.0391 10.2734ZM38.6094 8.49219L38.5781 10.4141C38.4635 10.3932 38.3333 10.3776 38.1875 10.3672C38.0469 10.3568 37.9141 10.3516 37.7891 10.3516C37.4714 10.3516 37.1927 10.3958 36.9531 10.4844C36.7135 10.5677 36.513 10.6901 36.3516 10.8516C36.1953 11.013 36.0755 11.2109 35.9922 11.4453C35.9089 11.6745 35.862 11.9349 35.8516 12.2266L35.4062 12.1719C35.4062 11.6354 35.4609 11.138 35.5703 10.6797C35.6797 10.2214 35.8385 9.82031 36.0469 9.47656C36.2552 9.13281 36.5156 8.86719 36.8281 8.67969C37.1458 8.48698 37.5104 8.39062 37.9219 8.39062C38.0365 8.39062 38.1589 8.40104 38.2891 8.42188C38.4245 8.4375 38.5312 8.46094 38.6094 8.49219ZM42.3594 16.0625L44.625 8.54688H46.8359L43.4453 18.2812C43.3672 18.4896 43.2656 18.7161 43.1406 18.9609C43.0208 19.2057 42.8594 19.4375 42.6562 19.6562C42.4531 19.8802 42.1979 20.0625 41.8906 20.2031C41.5885 20.3438 41.2214 20.4141 40.7891 20.4141C40.6016 20.4141 40.4349 20.401 40.2891 20.375C40.1432 20.349 39.9896 20.3151 39.8281 20.2734V18.7266C39.8802 18.7318 39.9401 18.7344 40.0078 18.7344C40.0807 18.7396 40.1432 18.7422 40.1953 18.7422C40.4974 18.7422 40.7474 18.7057 40.9453 18.6328C41.1432 18.5651 41.3021 18.4531 41.4219 18.2969C41.5469 18.1458 41.651 17.9479 41.7344 17.7031L42.3594 16.0625ZM41.2422 8.54688L43.1562 14.7734L43.4922 16.9531L42.0703 17.2109L39.0156 8.54688H41.2422ZM49.8594 10.3516V17H47.7969V8.54688H49.7344L49.8594 10.3516ZM49.5312 12.4688H48.9219C48.9271 11.8542 49.0104 11.2969 49.1719 10.7969C49.3333 10.2969 49.5599 9.86719 49.8516 9.50781C50.1484 9.14844 50.5 8.8724 50.9062 8.67969C51.3125 8.48698 51.7656 8.39062 52.2656 8.39062C52.6719 8.39062 53.0391 8.44792 53.3672 8.5625C53.6953 8.67708 53.9766 8.85938 54.2109 9.10938C54.4505 9.35938 54.6328 9.6875 54.7578 10.0938C54.888 10.4948 54.9531 10.9896 54.9531 11.5781V17H52.875V11.5625C52.875 11.1771 52.8177 10.8724 52.7031 10.6484C52.5938 10.4245 52.4323 10.2656 52.2188 10.1719C52.0104 10.0781 51.7526 10.0312 51.4453 10.0312C51.1276 10.0312 50.849 10.0964 50.6094 10.2266C50.375 10.3516 50.1771 10.526 50.0156 10.75C49.8594 10.974 49.7396 11.2318 49.6562 11.5234C49.5729 11.8151 49.5312 12.1302 49.5312 12.4688ZM61.8516 5.625H63.7109L66.8203 14.1875L69.9219 5.625H71.7891L67.5625 17H66.0703L61.8516 5.625ZM60.9141 5.625H62.7344L63.0625 13.4922V17H60.9141V5.625ZM70.8984 5.625H72.7266V17H70.5781V13.4922L70.8984 5.625ZM79.7891 14.9922V8.54688H81.8672V17H79.9141L79.7891 14.9922ZM80.0547 13.2422L80.6953 13.2266C80.6953 13.7943 80.6328 14.3177 80.5078 14.7969C80.3828 15.276 80.1875 15.6927 79.9219 16.0469C79.6615 16.3958 79.3307 16.6693 78.9297 16.8672C78.5286 17.0599 78.0547 17.1562 77.5078 17.1562C77.0911 17.1562 76.7109 17.099 76.3672 16.9844C76.0234 16.8646 75.7266 16.6797 75.4766 16.4297C75.2318 16.1745 75.0417 15.849 74.9062 15.4531C74.7708 15.0521 74.7031 14.5703 74.7031 14.0078V8.54688H76.7656V14.0234C76.7656 14.3047 76.7969 14.5391 76.8594 14.7266C76.9271 14.9141 77.0182 15.0677 77.1328 15.1875C77.2526 15.3021 77.3906 15.3854 77.5469 15.4375C77.7083 15.4844 77.8802 15.5078 78.0625 15.5078C78.5625 15.5078 78.9557 15.4089 79.2422 15.2109C79.5339 15.0078 79.7422 14.737 79.8672 14.3984C79.9922 14.0547 80.0547 13.6693 80.0547 13.2422ZM85.7578 10.2734V17H83.6953V8.54688H85.6484L85.7578 10.2734ZM88.3281 8.49219L88.2969 10.4141C88.1823 10.3932 88.0521 10.3776 87.9062 10.3672C87.7656 10.3568 87.6328 10.3516 87.5078 10.3516C87.1901 10.3516 86.9115 10.3958 86.6719 10.4844C86.4323 10.5677 86.2318 10.6901 86.0703 10.8516C85.9141 11.013 85.7943 11.2109 85.7109 11.4453C85.6276 11.6745 85.5807 11.9349 85.5703 12.2266L85.125 12.1719C85.125 11.6354 85.1797 11.138 85.2891 10.6797C85.3984 10.2214 85.5573 9.82031 85.7656 9.47656C85.974 9.13281 86.2344 8.86719 86.5469 8.67969C86.8646 8.48698 87.2292 8.39062 87.6406 8.39062C87.7552 8.39062 87.8776 8.40104 88.0078 8.42188C88.1432 8.4375 88.25 8.46094 88.3281 8.49219ZM91.5234 10.1719V20.25H89.4531V8.54688H91.3672L91.5234 10.1719ZM96.9531 12.6875V12.8516C96.9531 13.4661 96.8802 14.0365 96.7344 14.5625C96.5938 15.0833 96.3854 15.5391 96.1094 15.9297C95.8333 16.3151 95.4896 16.6172 95.0781 16.8359C94.6719 17.0495 94.2031 17.1562 93.6719 17.1562C93.151 17.1562 92.6979 17.0573 92.3125 16.8594C91.9271 16.6562 91.6016 16.3698 91.3359 16C91.0703 15.6302 90.8568 15.2005 90.6953 14.7109C90.5391 14.2161 90.4219 13.6771 90.3438 13.0938V12.5703C90.4219 11.9505 90.5391 11.388 90.6953 10.8828C90.8568 10.3724 91.0703 9.93229 91.3359 9.5625C91.6016 9.1875 91.9245 8.89844 92.3047 8.69531C92.6901 8.49219 93.1406 8.39062 93.6562 8.39062C94.1927 8.39062 94.6641 8.49219 95.0703 8.69531C95.4818 8.89844 95.8281 9.1901 96.1094 9.57031C96.3906 9.95052 96.6016 10.4036 96.7422 10.9297C96.8828 11.4557 96.9531 12.0417 96.9531 12.6875ZM94.8828 12.8516V12.6875C94.8828 12.3125 94.849 11.9661 94.7812 11.6484C94.7135 11.3255 94.6094 11.0443 94.4688 10.8047C94.3281 10.5599 94.1458 10.3698 93.9219 10.2344C93.6979 10.099 93.4271 10.0312 93.1094 10.0312C92.7917 10.0312 92.5182 10.0833 92.2891 10.1875C92.0599 10.2917 91.8724 10.4401 91.7266 10.6328C91.5807 10.8255 91.4661 11.0547 91.3828 11.3203C91.3047 11.5807 91.2526 11.8698 91.2266 12.1875V13.4844C91.2734 13.8698 91.3646 14.2161 91.5 14.5234C91.6354 14.8307 91.8333 15.0755 92.0938 15.2578C92.3594 15.4401 92.7031 15.5312 93.125 15.5312C93.4427 15.5312 93.7135 15.4609 93.9375 15.3203C94.1615 15.1797 94.3438 14.987 94.4844 14.7422C94.625 14.4922 94.7266 14.2057 94.7891 13.8828C94.8516 13.5599 94.8828 13.2161 94.8828 12.8516ZM100.484 5V17H98.4141V5H100.484ZM100.156 12.4688H99.5469C99.5469 11.8802 99.625 11.3385 99.7812 10.8438C99.9375 10.349 100.159 9.91927 100.445 9.55469C100.732 9.1849 101.073 8.89844 101.469 8.69531C101.87 8.49219 102.312 8.39062 102.797 8.39062C103.214 8.39062 103.591 8.45052 103.93 8.57031C104.273 8.6849 104.568 8.86979 104.812 9.125C105.057 9.38021 105.245 9.71354 105.375 10.125C105.51 10.5312 105.578 11.026 105.578 11.6094V17H103.5V11.5938C103.5 11.2031 103.443 10.8958 103.328 10.6719C103.214 10.4427 103.049 10.2786 102.836 10.1797C102.628 10.0807 102.37 10.0312 102.062 10.0312C101.729 10.0312 101.443 10.0964 101.203 10.2266C100.964 10.3516 100.766 10.526 100.609 10.75C100.458 10.974 100.344 11.2318 100.266 11.5234C100.193 11.8151 100.156 12.1302 100.156 12.4688ZM109.875 16.0625L112.141 8.54688H114.352L110.961 18.2812C110.883 18.4896 110.781 18.7161 110.656 18.9609C110.536 19.2057 110.375 19.4375 110.172 19.6562C109.969 19.8802 109.714 20.0625 109.406 20.2031C109.104 20.3438 108.737 20.4141 108.305 20.4141C108.117 20.4141 107.951 20.401 107.805 20.375C107.659 20.349 107.505 20.3151 107.344 20.2734V18.7266C107.396 18.7318 107.456 18.7344 107.523 18.7344C107.596 18.7396 107.659 18.7422 107.711 18.7422C108.013 18.7422 108.263 18.7057 108.461 18.6328C108.659 18.5651 108.818 18.4531 108.938 18.2969C109.062 18.1458 109.167 17.9479 109.25 17.7031L109.875 16.0625ZM108.758 8.54688L110.672 14.7734L111.008 16.9531L109.586 17.2109L106.531 8.54688H108.758Z" fill="#282938"/>
<path d="M1.79688 29.625H3.25781L6.98438 38.8984L10.7031 29.625H12.1719L7.54688 41H6.40625L1.79688 29.625ZM1.32031 29.625H2.60938L2.82031 36.5625V41H1.32031V29.625ZM11.3516 29.625H12.6406V41H11.1406V36.5625L11.3516 29.625ZM18.4531 39.9688C18.7969 39.9688 19.1146 39.8984 19.4062 39.7578C19.6979 39.6172 19.9375 39.4245 20.125 39.1797C20.3125 38.9297 20.4193 38.6458 20.4453 38.3281H21.8203C21.7943 38.8281 21.625 39.2943 21.3125 39.7266C21.0052 40.1536 20.6016 40.5 20.1016 40.7656C19.6016 41.026 19.0521 41.1562 18.4531 41.1562C17.8177 41.1562 17.263 41.0443 16.7891 40.8203C16.3203 40.5964 15.9297 40.2891 15.6172 39.8984C15.3099 39.5078 15.0781 39.0599 14.9219 38.5547C14.7708 38.0443 14.6953 37.5052 14.6953 36.9375V36.6094C14.6953 36.0417 14.7708 35.5052 14.9219 35C15.0781 34.4896 15.3099 34.0391 15.6172 33.6484C15.9297 33.2578 16.3203 32.9505 16.7891 32.7266C17.263 32.5026 17.8177 32.3906 18.4531 32.3906C19.1146 32.3906 19.6927 32.526 20.1875 32.7969C20.6823 33.0625 21.0703 33.4271 21.3516 33.8906C21.638 34.349 21.7943 34.8698 21.8203 35.4531H20.4453C20.4193 35.1042 20.3203 34.7891 20.1484 34.5078C19.9818 34.2266 19.7526 34.0026 19.4609 33.8359C19.1745 33.6641 18.8385 33.5781 18.4531 33.5781C18.0104 33.5781 17.638 33.6667 17.3359 33.8438C17.0391 34.0156 16.8021 34.25 16.625 34.5469C16.4531 34.8385 16.3281 35.1641 16.25 35.5234C16.1771 35.8776 16.1406 36.2396 16.1406 36.6094V36.9375C16.1406 37.3073 16.1771 37.6719 16.25 38.0312C16.3229 38.3906 16.4453 38.7161 16.6172 39.0078C16.7943 39.2995 17.0312 39.5339 17.3281 39.7109C17.6302 39.8828 18.0052 39.9688 18.4531 39.9688ZM26.7422 41H24.3672L24.3828 39.7734H26.7422C27.5547 39.7734 28.2318 39.6042 28.7734 39.2656C29.3151 38.9219 29.7214 38.4427 29.9922 37.8281C30.2682 37.2083 30.4062 36.4844 30.4062 35.6562V34.9609C30.4062 34.3099 30.3281 33.7318 30.1719 33.2266C30.0156 32.7161 29.7865 32.2865 29.4844 31.9375C29.1823 31.5833 28.8125 31.3151 28.375 31.1328C27.9427 30.9505 27.4453 30.8594 26.8828 30.8594H24.3203V29.625H26.8828C27.6276 29.625 28.3073 29.75 28.9219 30C29.5365 30.2448 30.0651 30.6016 30.5078 31.0703C30.9557 31.5339 31.2995 32.0964 31.5391 32.7578C31.7786 33.4141 31.8984 34.1536 31.8984 34.9766V35.6562C31.8984 36.4792 31.7786 37.2214 31.5391 37.8828C31.2995 38.5391 30.9531 39.099 30.5 39.5625C30.0521 40.026 29.5104 40.3828 28.875 40.6328C28.2448 40.8776 27.5339 41 26.7422 41ZM25.1719 29.625V41H23.6641V29.625H25.1719ZM33.5625 36.8672V36.6875C33.5625 36.0781 33.651 35.513 33.8281 34.9922C34.0052 34.4661 34.2604 34.0104 34.5938 33.625C34.9271 33.2344 35.3307 32.9323 35.8047 32.7188C36.2786 32.5 36.8099 32.3906 37.3984 32.3906C37.9922 32.3906 38.526 32.5 39 32.7188C39.4792 32.9323 39.8854 33.2344 40.2188 33.625C40.5573 34.0104 40.8151 34.4661 40.9922 34.9922C41.1693 35.513 41.2578 36.0781 41.2578 36.6875V36.8672C41.2578 37.4766 41.1693 38.0417 40.9922 38.5625C40.8151 39.0833 40.5573 39.5391 40.2188 39.9297C39.8854 40.3151 39.4818 40.6172 39.0078 40.8359C38.5391 41.0495 38.0078 41.1562 37.4141 41.1562C36.8203 41.1562 36.2865 41.0495 35.8125 40.8359C35.3385 40.6172 34.9323 40.3151 34.5938 39.9297C34.2604 39.5391 34.0052 39.0833 33.8281 38.5625C33.651 38.0417 33.5625 37.4766 33.5625 36.8672ZM35.0078 36.6875V36.8672C35.0078 37.2891 35.0573 37.6875 35.1562 38.0625C35.2552 38.4323 35.4036 38.7604 35.6016 39.0469C35.8047 39.3333 36.0573 39.5599 36.3594 39.7266C36.6615 39.888 37.013 39.9688 37.4141 39.9688C37.8099 39.9688 38.1562 39.888 38.4531 39.7266C38.7552 39.5599 39.0052 39.3333 39.2031 39.0469C39.401 38.7604 39.5495 38.4323 39.6484 38.0625C39.7526 37.6875 39.8047 37.2891 39.8047 36.8672V36.6875C39.8047 36.2708 39.7526 35.8776 39.6484 35.5078C39.5495 35.1328 39.3984 34.8021 39.1953 34.5156C38.9974 34.224 38.7474 33.9948 38.4453 33.8281C38.1484 33.6615 37.7995 33.5781 37.3984 33.5781C37.0026 33.5781 36.6536 33.6615 36.3516 33.8281C36.0547 33.9948 35.8047 34.224 35.6016 34.5156C35.4036 34.8021 35.2552 35.1328 35.1562 35.5078C35.0573 35.8776 35.0078 36.2708 35.0078 36.6875ZM44.5156 34.3516V41H43.0703V32.5469H44.4375L44.5156 34.3516ZM44.1719 36.4531L43.5703 36.4297C43.5755 35.8516 43.6615 35.3177 43.8281 34.8281C43.9948 34.3333 44.2292 33.9036 44.5312 33.5391C44.8333 33.1745 45.1927 32.8932 45.6094 32.6953C46.0312 32.4922 46.4974 32.3906 47.0078 32.3906C47.4245 32.3906 47.7995 32.4479 48.1328 32.5625C48.4661 32.6719 48.75 32.849 48.9844 33.0938C49.224 33.3385 49.4062 33.6562 49.5312 34.0469C49.6562 34.4323 49.7188 34.9036 49.7188 35.4609V41H48.2656V35.4453C48.2656 35.0026 48.2005 34.6484 48.0703 34.3828C47.9401 34.112 47.75 33.9167 47.5 33.7969C47.25 33.6719 46.9427 33.6094 46.5781 33.6094C46.2188 33.6094 45.8906 33.6849 45.5938 33.8359C45.3021 33.987 45.0495 34.1953 44.8359 34.4609C44.6276 34.7266 44.4635 35.0312 44.3438 35.375C44.2292 35.7135 44.1719 36.0729 44.1719 36.4531ZM56.8984 39.5547V35.2031C56.8984 34.8698 56.8307 34.5807 56.6953 34.3359C56.5651 34.0859 56.3672 33.8932 56.1016 33.7578C55.8359 33.6224 55.5078 33.5547 55.1172 33.5547C54.7526 33.5547 54.4323 33.6172 54.1562 33.7422C53.8854 33.8672 53.6719 34.0312 53.5156 34.2344C53.3646 34.4375 53.2891 34.6562 53.2891 34.8906H51.8438C51.8438 34.5885 51.9219 34.2891 52.0781 33.9922C52.2344 33.6953 52.4583 33.4271 52.75 33.1875C53.0469 32.9427 53.401 32.75 53.8125 32.6094C54.2292 32.4635 54.6927 32.3906 55.2031 32.3906C55.8177 32.3906 56.3594 32.4948 56.8281 32.7031C57.3021 32.9115 57.6719 33.2266 57.9375 33.6484C58.2083 34.0651 58.3438 34.5885 58.3438 35.2188V39.1562C58.3438 39.4375 58.3672 39.737 58.4141 40.0547C58.4661 40.3724 58.5417 40.6458 58.6406 40.875V41H57.1328C57.0599 40.8333 57.0026 40.612 56.9609 40.3359C56.9193 40.0547 56.8984 39.7943 56.8984 39.5547ZM57.1484 35.875L57.1641 36.8906H55.7031C55.2917 36.8906 54.9245 36.9245 54.6016 36.9922C54.2786 37.0547 54.0078 37.151 53.7891 37.2812C53.5703 37.4115 53.4036 37.5755 53.2891 37.7734C53.1745 37.9661 53.1172 38.1927 53.1172 38.4531C53.1172 38.7188 53.1771 38.9609 53.2969 39.1797C53.4167 39.3984 53.5964 39.5729 53.8359 39.7031C54.0807 39.8281 54.3802 39.8906 54.7344 39.8906C55.1771 39.8906 55.5677 39.7969 55.9062 39.6094C56.2448 39.4219 56.513 39.1927 56.7109 38.9219C56.9141 38.651 57.0234 38.388 57.0391 38.1328L57.6562 38.8281C57.6198 39.0469 57.5208 39.2891 57.3594 39.5547C57.1979 39.8203 56.9818 40.0755 56.7109 40.3203C56.4453 40.5599 56.1276 40.7604 55.7578 40.9219C55.3932 41.0781 54.9818 41.1562 54.5234 41.1562C53.9505 41.1562 53.4479 41.0443 53.0156 40.8203C52.5885 40.5964 52.2552 40.2969 52.0156 39.9219C51.7812 39.5417 51.6641 39.1172 51.6641 38.6484C51.6641 38.1953 51.7526 37.7969 51.9297 37.4531C52.1068 37.1042 52.362 36.8151 52.6953 36.5859C53.0286 36.3516 53.4297 36.1745 53.8984 36.0547C54.3672 35.9349 54.8906 35.875 55.4688 35.875H57.1484ZM62.1875 29V41H60.7344V29H62.1875ZM69.8359 39.3594V29H71.2891V41H69.9609L69.8359 39.3594ZM64.1484 36.8672V36.7031C64.1484 36.0573 64.2266 35.4714 64.3828 34.9453C64.5443 34.4141 64.7708 33.9583 65.0625 33.5781C65.3594 33.1979 65.7109 32.9062 66.1172 32.7031C66.5286 32.4948 66.987 32.3906 67.4922 32.3906C68.0234 32.3906 68.487 32.4844 68.8828 32.6719C69.2839 32.8542 69.6224 33.1224 69.8984 33.4766C70.1797 33.8255 70.401 34.2474 70.5625 34.7422C70.724 35.237 70.8359 35.7969 70.8984 36.4219V37.1406C70.8411 37.7604 70.7292 38.3177 70.5625 38.8125C70.401 39.3073 70.1797 39.7292 69.8984 40.0781C69.6224 40.4271 69.2839 40.6953 68.8828 40.8828C68.4818 41.0651 68.013 41.1562 67.4766 41.1562C66.9818 41.1562 66.5286 41.0495 66.1172 40.8359C65.7109 40.6224 65.3594 40.3229 65.0625 39.9375C64.7708 39.5521 64.5443 39.099 64.3828 38.5781C64.2266 38.0521 64.1484 37.4818 64.1484 36.8672ZM65.6016 36.7031V36.8672C65.6016 37.2891 65.6432 37.6849 65.7266 38.0547C65.8151 38.4245 65.9505 38.75 66.1328 39.0312C66.3151 39.3125 66.5469 39.5339 66.8281 39.6953C67.1094 39.8516 67.4453 39.9297 67.8359 39.9297C68.3151 39.9297 68.7083 39.8281 69.0156 39.625C69.3281 39.4219 69.5781 39.1536 69.7656 38.8203C69.9531 38.487 70.099 38.125 70.2031 37.7344V35.8516C70.1406 35.5651 70.0495 35.2891 69.9297 35.0234C69.8151 34.7526 69.6641 34.513 69.4766 34.3047C69.2943 34.0911 69.0677 33.9219 68.7969 33.7969C68.5312 33.6719 68.2161 33.6094 67.8516 33.6094C67.4557 33.6094 67.1146 33.6927 66.8281 33.8594C66.5469 34.0208 66.3151 34.2448 66.1328 34.5312C65.9505 34.8125 65.8151 35.1406 65.7266 35.5156C65.6432 35.8854 65.6016 36.2812 65.6016 36.7031ZM74.4219 29V29.8594L74.2578 32.7344H73.25L73.2578 29.9922V29H74.4219ZM80.6328 38.7578C80.6328 38.5495 80.5859 38.3568 80.4922 38.1797C80.4036 37.9974 80.2188 37.8333 79.9375 37.6875C79.6615 37.5365 79.2448 37.4062 78.6875 37.2969C78.2188 37.1979 77.7943 37.0807 77.4141 36.9453C77.0391 36.8099 76.7188 36.6458 76.4531 36.4531C76.1927 36.2604 75.9922 36.0339 75.8516 35.7734C75.7109 35.513 75.6406 35.2083 75.6406 34.8594C75.6406 34.526 75.7135 34.2109 75.8594 33.9141C76.0104 33.6172 76.2214 33.3542 76.4922 33.125C76.7682 32.8958 77.099 32.7161 77.4844 32.5859C77.8698 32.4557 78.2995 32.3906 78.7734 32.3906C79.4505 32.3906 80.0286 32.5104 80.5078 32.75C80.987 32.9896 81.3542 33.3099 81.6094 33.7109C81.8646 34.1068 81.9922 34.5469 81.9922 35.0312H80.5469C80.5469 34.7969 80.4766 34.5703 80.3359 34.3516C80.2005 34.1276 80 33.9427 79.7344 33.7969C79.474 33.651 79.1536 33.5781 78.7734 33.5781C78.3724 33.5781 78.0469 33.6406 77.7969 33.7656C77.5521 33.8854 77.3724 34.0391 77.2578 34.2266C77.1484 34.4141 77.0938 34.612 77.0938 34.8203C77.0938 34.9766 77.1198 35.1172 77.1719 35.2422C77.2292 35.362 77.3281 35.474 77.4688 35.5781C77.6094 35.6771 77.8073 35.7708 78.0625 35.8594C78.3177 35.9479 78.6432 36.0365 79.0391 36.125C79.7318 36.2812 80.3021 36.4688 80.75 36.6875C81.1979 36.9062 81.5312 37.1745 81.75 37.4922C81.9688 37.8099 82.0781 38.1953 82.0781 38.6484C82.0781 39.0182 82 39.3568 81.8438 39.6641C81.6927 39.9714 81.4714 40.237 81.1797 40.4609C80.8932 40.6797 80.5495 40.8516 80.1484 40.9766C79.7526 41.0964 79.3073 41.1562 78.8125 41.1562C78.0677 41.1562 77.4375 41.0234 76.9219 40.7578C76.4062 40.4922 76.0156 40.1484 75.75 39.7266C75.4844 39.3047 75.3516 38.8594 75.3516 38.3906H76.8047C76.8255 38.7865 76.9401 39.1016 77.1484 39.3359C77.3568 39.5651 77.612 39.7292 77.9141 39.8281C78.2161 39.9219 78.5156 39.9688 78.8125 39.9688C79.2083 39.9688 79.5391 39.9167 79.8047 39.8125C80.0755 39.7083 80.2812 39.5651 80.4219 39.3828C80.5625 39.2005 80.6328 38.9922 80.6328 38.7578Z" fill="#1C1E53"/>
</svg>
