<svg width="150" height="32" viewBox="0 0 150 32" fill="none" xmlns="http://www.w3.org/2000/svg">
<path d="M24.0204 14.2626C23.6143 14.6693 23.3034 15.1602 23.1097 15.7002C22.916 16.2402 22.8443 16.8161 22.8997 17.3869L22.8804 17.3677C22.9374 18.0396 22.8463 18.7156 22.6137 19.3489C22.3811 19.9821 22.0126 20.5571 21.5337 21.0339C21.0548 21.5106 20.4772 21.8776 19.8411 22.1091C19.2051 22.3407 18.5259 22.4314 17.8511 22.3746L17.8704 22.3938C17.0632 22.319 16.2524 22.4939 15.5486 22.8946C14.8449 23.2954 14.2824 23.9024 13.9379 24.6331C13.5935 25.3637 13.4837 26.1823 13.6236 26.9774C13.7636 27.7724 14.1464 28.5051 14.72 29.0755C15.2935 29.646 16.0298 30.0264 16.8284 30.165C17.6272 30.3037 18.4493 30.1936 19.1829 29.85C19.9165 29.5063 20.5257 28.9459 20.9276 28.2449C21.3295 27.5439 21.5045 26.7366 21.4286 25.933L21.449 25.9522C21.392 25.2804 21.4829 24.6043 21.7156 23.971C21.9482 23.3378 22.3168 22.7628 22.7957 22.286C23.2746 21.8093 23.8522 21.4422 24.4882 21.2108C25.1243 20.9792 25.8034 20.8885 26.4783 20.9453L26.4579 20.9261C27.1173 20.9851 27.781 20.8774 28.3876 20.6131C28.994 20.3488 29.5237 19.9363 29.9274 19.414C30.3311 18.8916 30.596 18.2762 30.6971 17.6248C30.7984 16.9734 30.7328 16.3072 30.5065 15.6877C30.2802 15.0683 29.9005 14.5157 29.4026 14.0813C28.9047 13.6468 28.3047 13.3445 27.6582 13.2024C27.0117 13.0604 26.3396 13.083 25.7043 13.2683C25.0689 13.4536 24.4909 13.7956 24.0236 14.2626H24.0204Z" fill="#282938"/>
<path d="M16.1165 19.8785L16.0961 19.8593C16.6696 19.9168 17.2488 19.8467 17.792 19.654C18.335 19.4614 18.8282 19.1511 19.236 18.7454C19.6437 18.3398 19.9559 17.8489 20.1497 17.3084C20.3437 16.768 20.4145 16.1914 20.3572 15.6203L20.3775 15.6395C20.3205 14.9676 20.4116 14.2916 20.6441 13.6583C20.8767 13.0251 21.2454 12.4501 21.7242 11.9733C22.2031 11.4966 22.7807 11.1296 23.4167 10.8981C24.0528 10.6665 24.7319 10.5759 25.4068 10.6326L25.3865 10.6134C26.1938 10.6889 27.0047 10.5146 27.7089 10.1143C28.4131 9.71402 28.9761 9.10723 29.3211 8.3767C29.6661 7.64618 29.7763 6.82749 29.6368 6.03227C29.4973 5.23706 29.1148 4.50407 28.5414 3.93326C27.9681 3.36245 27.2318 2.98161 26.433 2.84271C25.6343 2.70379 24.812 2.81357 24.0781 3.15705C23.3443 3.50053 22.7349 4.06101 22.3328 4.76203C21.9307 5.46305 21.7556 6.27048 21.8315 7.07419L21.8122 7.05393C21.8693 7.72581 21.7784 8.40201 21.5459 9.03531C21.3134 9.66862 20.9447 10.2438 20.4659 10.7206C19.987 11.1973 19.4093 11.5643 18.7732 11.7958C18.137 12.0273 17.4578 12.1177 16.7829 12.0609L16.8022 12.0811C16.2286 12.0236 15.6493 12.0937 15.1063 12.2864C14.5633 12.4789 14.07 12.7893 13.6622 13.1949C13.2545 13.6006 12.9423 14.0915 12.7484 14.632C12.5546 15.1724 12.4838 15.749 12.5411 16.3201L12.5218 16.3009C12.5786 16.9726 12.4874 17.6487 12.2548 18.2819C12.0221 18.9149 11.6535 19.49 11.1747 19.9667C10.6958 20.4434 10.1183 20.8103 9.48234 21.042C8.84638 21.2736 8.16732 21.3643 7.49253 21.3078L7.51181 21.327C6.70451 21.2515 5.89347 21.4258 5.18932 21.8261C4.48518 22.2264 3.92219 22.8331 3.57718 23.5637C3.23216 24.2942 3.12189 25.1129 3.26142 25.9081C3.40095 26.7033 3.7835 27.4363 4.35685 28.0071C4.93022 28.578 5.66648 28.9588 6.46524 29.0977C7.264 29.2365 8.08636 29.1268 8.82014 28.7833C9.55392 28.4398 10.1634 27.8794 10.5655 27.1784C10.9676 26.4773 11.1427 25.6699 11.0668 24.8662L11.0872 24.8854C11.0302 24.2135 11.1212 23.5374 11.3538 22.9042C11.5863 22.271 11.955 21.696 12.4338 21.2192C12.9128 20.7425 13.4904 20.3754 14.1264 20.144C14.7625 19.9124 15.4416 19.8217 16.1165 19.8785Z" fill="#06A6FF"/>
<path d="M8.93577 17.7377C9.34186 17.3311 9.65277 16.8402 9.84631 16.3001C10.0399 15.7601 10.1113 15.1841 10.0554 14.6134L10.0758 14.6326C10.0188 13.9606 10.1098 13.2842 10.3425 12.6508C10.5752 12.0175 10.9441 11.4423 11.4232 10.9655C11.9023 10.4887 12.4802 10.1218 13.1165 9.89039C13.7528 9.65897 14.4322 9.56862 15.1072 9.62567L15.0868 9.60647C15.8938 9.68174 16.7046 9.50735 17.4084 9.1071C18.1122 8.70685 18.6748 8.1002 19.0197 7.36991C19.3645 6.63961 19.4747 5.82121 19.3352 5.02629C19.1957 4.23138 18.8132 3.49867 18.2401 2.92807C17.6669 2.35746 16.9309 1.97675 16.1324 1.83785C15.334 1.69893 14.5119 1.80861 13.7784 2.15188C13.0448 2.49516 12.4355 3.05534 12.0335 3.75603C11.6314 4.45673 11.4562 5.26383 11.5318 6.06727L11.5126 6.04807C11.5696 6.71991 11.4785 7.39603 11.2459 8.02925C11.0133 8.66247 10.6447 9.23752 10.1658 9.71427C9.68696 10.191 9.10933 10.558 8.47329 10.7895C7.83724 11.0211 7.15811 11.1117 6.48327 11.055L6.50255 11.0742C5.84316 11.0153 5.17951 11.1232 4.5731 11.3876C3.9667 11.652 3.43714 12.0646 3.03352 12.5871C2.62991 13.1094 2.36528 13.7249 2.26416 14.3762C2.16305 15.0276 2.22872 15.6938 2.45508 16.3131C2.68144 16.9325 3.06119 17.485 3.55911 17.9193C4.05704 18.3538 4.65704 18.656 5.30352 18.798C5.94998 18.94 6.62202 18.9173 7.25734 18.732C7.89266 18.5466 8.47069 18.2047 8.9379 17.7377H8.93577Z" fill="#282938"/>
<path d="M42.1252 7.09863H45.3074V22.5152H42.1252V7.09863Z" fill="#282938"/>
<path d="M47.1095 17.2364C47.1051 16.1285 47.4311 15.0442 48.0461 14.1209C48.6611 13.1976 49.5375 12.4767 50.5643 12.0497C51.5912 11.6226 52.7222 11.5086 53.8142 11.722C54.9062 11.9355 55.91 12.4667 56.6985 13.2485C57.487 14.0303 58.0246 15.0275 58.2434 16.1138C58.4622 17.2001 58.3521 18.3266 57.9273 19.3506C57.5025 20.3745 56.782 21.25 55.857 21.8659C54.9319 22.4819 53.8442 22.8108 52.7313 22.8108C51.9927 22.8192 51.2597 22.6809 50.5753 22.4039C49.8908 22.127 49.2688 21.7171 48.7454 21.1982C48.2219 20.6791 47.8077 20.0614 47.5268 19.3812C47.2459 18.701 47.1041 17.9718 47.1095 17.2364ZM55.171 17.2364C55.1577 16.7588 55.0033 16.2958 54.7272 15.9051C54.451 15.5145 54.0652 15.2134 53.6182 15.0399C53.1711 14.8662 52.6827 14.8276 52.2137 14.929C51.7447 15.0303 51.3162 15.2669 50.9816 15.6094C50.6471 15.9518 50.4212 16.3849 50.3326 16.8544C50.2439 17.3238 50.2961 17.809 50.4828 18.2491C50.6696 18.6892 50.9824 19.0646 51.3823 19.3286C51.7822 19.5926 52.2515 19.7334 52.7313 19.7334C53.0599 19.7422 53.3868 19.683 53.6914 19.5597C53.9959 19.4364 54.2715 19.2516 54.5007 19.0171C54.7298 18.7824 54.9078 18.503 55.0231 18.1966C55.1385 17.8901 55.1888 17.5632 55.171 17.2364Z" fill="#282938"/>
<path d="M71.0358 11.9562V21.9829C71.0358 25.5306 68.2565 27.0303 65.4354 27.0303C64.4422 27.1044 63.4476 26.9046 62.5608 26.4531C61.6741 26.0014 60.9293 25.3154 60.4083 24.4703L63.1233 22.9077C63.3423 23.3482 63.6913 23.7116 64.1234 23.9494C64.5556 24.187 65.0504 24.2877 65.5415 24.2378C65.8554 24.2811 66.1751 24.2536 66.477 24.1573C66.7787 24.0609 67.0549 23.8983 67.285 23.6814C67.5152 23.4645 67.6934 23.1989 67.8065 22.904C67.9195 22.6093 67.9645 22.293 67.9383 21.9786V21.0133C67.5656 21.4671 67.0914 21.8278 66.5535 22.0662C66.0155 22.3046 65.429 22.4141 64.8408 22.3861C63.4413 22.3421 62.1139 21.7578 61.1395 20.7566C60.1652 19.7556 59.6204 18.4162 59.6204 17.0223C59.6204 15.6284 60.1652 14.2891 61.1395 13.288C62.1139 12.2869 63.4413 11.7025 64.8408 11.6586C65.429 11.6305 66.0155 11.7401 66.5535 11.9785C67.0914 12.2169 67.5656 12.5775 67.9383 13.0314V11.9541L71.0358 11.9562ZM67.9394 17.0239C67.9608 16.5134 67.8281 16.0081 67.5587 15.5733C67.2892 15.1383 66.8951 14.7936 66.4273 14.5836C65.9594 14.3735 65.4391 14.3077 64.9333 14.3945C64.4274 14.4813 63.9593 14.7168 63.589 15.0709C63.2189 15.4248 62.9635 15.8809 62.8559 16.3805C62.7483 16.8801 62.7933 17.4005 62.9853 17.8744C63.1772 18.3483 63.5072 18.7543 63.9328 19.0399C64.3583 19.3256 64.8601 19.4779 65.3733 19.4773C65.7077 19.5005 66.0431 19.4538 66.3583 19.3401C66.6734 19.2264 66.961 19.0481 67.2028 18.8171C67.4445 18.586 67.635 18.307 67.7618 17.9981C67.8887 17.6893 67.9492 17.3575 67.9394 17.0239Z" fill="#282938"/>
<path d="M72.8378 17.2364C72.8334 16.1285 73.1592 15.0442 73.7743 14.1209C74.3893 13.1976 75.2658 12.4767 76.2926 12.0497C77.3195 11.6226 78.4505 11.5086 79.5425 11.722C80.6345 11.9355 81.6383 12.4667 82.4268 13.2485C83.2152 14.0303 83.7529 15.0275 83.9717 16.1138C84.1904 17.2001 84.0804 18.3266 83.6556 19.3506C83.2308 20.3745 82.5102 21.25 81.5853 21.8659C80.6602 22.4819 79.5725 22.8108 78.4596 22.8108C77.7209 22.8192 76.9879 22.6809 76.3035 22.4039C75.6191 22.127 74.997 21.7171 74.4736 21.1982C73.9501 20.6791 73.5359 20.0614 73.2551 19.3812C72.9742 18.701 72.8323 17.9718 72.8378 17.2364ZM80.8992 17.2364C80.8859 16.7588 80.7315 16.2958 80.4554 15.9051C80.1792 15.5145 79.7935 15.2134 79.3465 15.0399C78.8994 14.8662 78.4108 14.8276 77.942 14.929C77.473 15.0303 77.0444 15.2669 76.7098 15.6094C76.3753 15.9518 76.1495 16.3849 76.0608 16.8544C75.972 17.3238 76.0243 17.809 76.2111 18.2491C76.3978 18.6892 76.7107 19.0646 77.1105 19.3286C77.5105 19.5926 77.9797 19.7334 78.4596 19.7334C78.7882 19.7422 79.1151 19.683 79.4196 19.5597C79.7242 19.4364 79.9998 19.2516 80.2289 19.0171C80.4581 18.7824 80.6361 18.503 80.7514 18.1966C80.8668 17.8901 80.9171 17.5632 80.8992 17.2364Z" fill="#282938"/>
<path d="M85.5652 9.12639C85.5652 8.75044 85.6772 8.38294 85.8869 8.07037C86.0967 7.75778 86.395 7.51414 86.7439 7.37028C87.0927 7.22641 87.4766 7.18877 87.847 7.26211C88.2173 7.33545 88.5576 7.51649 88.8246 7.78232C89.0916 8.04815 89.2734 8.38684 89.3471 8.75556C89.4207 9.12428 89.3829 9.50646 89.2385 9.85379C89.0939 10.2011 88.8492 10.498 88.5352 10.7069C88.2213 10.9157 87.8521 11.0272 87.4745 11.0272C86.9697 11.0222 86.4869 10.8204 86.1299 10.4649C85.773 10.1095 85.5702 9.62896 85.5652 9.12639ZM85.8866 11.9563H89.0698V22.5163H85.8823L85.8866 11.9563Z" fill="#282938"/>
<path d="M102.81 17.2361C102.847 17.9341 102.745 18.6323 102.509 19.2907C102.274 19.9492 101.911 20.5549 101.439 21.0729C100.968 21.5909 100.399 22.0112 99.7639 22.3094C99.129 22.6075 98.4412 22.7779 97.74 22.8105C97.1503 22.8425 96.5609 22.7435 96.0143 22.5207C95.4678 22.2978 94.9781 21.9567 94.5803 21.522V26.7391H91.3982V11.9561H94.5803V12.9481C94.9782 12.5138 95.4681 12.1729 96.0146 11.9503C96.5611 11.7275 97.1504 11.6287 97.74 11.6607C98.4413 11.6932 99.1293 11.8634 99.7643 12.1617C100.399 12.4599 100.969 12.8802 101.44 13.3984C101.911 13.9166 102.275 14.5224 102.51 15.1811C102.745 15.8397 102.847 16.5381 102.81 17.2361ZM99.6278 17.2361C99.6154 16.7419 99.4568 16.2624 99.1719 15.8574C98.8871 15.4525 98.4886 15.1401 98.0264 14.9597C97.5641 14.7791 97.0586 14.7382 96.5731 14.8423C96.0876 14.9463 95.6438 15.1906 95.2971 15.5445C94.9504 15.8985 94.7163 16.3463 94.6241 16.8322C94.5318 17.3179 94.5855 17.8199 94.7784 18.2755C94.9713 18.7311 95.295 19.1198 95.7088 19.3931C96.1226 19.6664 96.608 19.8122 97.1046 19.8121C97.4455 19.8273 97.7858 19.7704 98.1032 19.6454C98.4204 19.5205 98.7077 19.3301 98.9459 19.0869C99.1842 18.8436 99.368 18.553 99.4856 18.2341C99.6031 17.9152 99.6516 17.575 99.6278 17.2361Z" fill="#282938"/>
<path d="M112.63 19.3474C112.63 21.7762 110.509 22.8109 108.219 22.8109C107.293 22.8943 106.364 22.6995 105.55 22.2514C104.737 21.8034 104.078 21.1229 103.657 20.2978L106.414 18.7351C106.526 19.1165 106.765 19.4483 107.093 19.675C107.42 19.9018 107.817 20.0098 108.214 19.981C108.977 19.981 109.36 19.7485 109.36 19.3271C109.36 18.1645 104.141 18.7778 104.141 15.1245C104.141 12.8215 106.093 11.661 108.299 11.661C109.128 11.6349 109.949 11.8307 110.676 12.228C111.404 12.6255 112.011 13.2098 112.435 13.9202L109.72 15.3773C109.601 15.1007 109.402 14.8651 109.15 14.6998C108.897 14.5346 108.601 14.4471 108.299 14.4482C107.747 14.4482 107.407 14.6615 107.407 15.0391C107.412 16.2434 112.63 15.4402 112.63 19.3474Z" fill="#282938"/>
<path d="M124.254 11.9565V22.5165H121.071V21.5235C120.704 21.9617 120.238 22.3069 119.711 22.5309C119.184 22.7549 118.611 22.8513 118.039 22.812C115.896 22.812 114.075 21.292 114.075 18.4387V11.9565H117.257V17.9747C117.23 18.2262 117.259 18.4805 117.342 18.7197C117.423 18.9591 117.557 19.1778 117.733 19.3605C117.909 19.5432 118.122 19.6856 118.359 19.7779C118.594 19.8701 118.848 19.91 119.102 19.8947C120.269 19.8947 121.075 19.2195 121.075 17.7197V11.9597L124.254 11.9565Z" fill="#282938"/>
<path d="M142.5 16.0322V22.5154H139.318V16.3063C139.318 15.2503 138.809 14.5751 137.791 14.5751C136.73 14.5751 136.136 15.3143 136.136 16.5602V22.5154H132.955V16.3063C132.955 15.2503 132.446 14.5751 131.427 14.5751C130.366 14.5751 129.772 15.3143 129.772 16.5602V22.5154H126.59V11.9554H129.772V12.926C130.102 12.4954 130.535 12.1539 131.031 11.9328C131.529 11.7115 132.073 11.6178 132.615 11.6599C133.159 11.6333 133.701 11.7478 134.189 11.992C134.675 12.236 135.09 12.6017 135.393 13.053C135.746 12.5808 136.213 12.2053 136.751 11.9617C137.289 11.718 137.88 11.6143 138.469 11.6599C140.905 11.661 142.5 13.3922 142.5 16.0322Z" fill="#282938"/>
<path d="M145.192 11.8913C146.495 11.8913 147.553 10.8387 147.553 9.54039C147.553 8.242 146.495 7.18945 145.192 7.18945C143.888 7.18945 142.83 8.242 142.83 9.54039C142.83 10.8387 143.888 11.8913 145.192 11.8913Z" fill="#282938"/>
</svg>
